<?xml version="1.0" encoding="UTF-8" standalone="no"?>
<svg
   xmlns:dc="http://purl.org/dc/elements/1.1/"
   xmlns:cc="http://creativecommons.org/ns#"
   xmlns:rdf="http://www.w3.org/1999/02/22-rdf-syntax-ns#"
   xmlns:svg="http://www.w3.org/2000/svg"
   xmlns="http://www.w3.org/2000/svg"
   xmlns:sodipodi="http://sodipodi.sourceforge.net/DTD/sodipodi-0.dtd"
   xmlns:inkscape="http://www.inkscape.org/namespaces/inkscape"
   width="75"
   height="75"
   viewBox="0 0 19.84375 19.843751"
   version="1.1"
   id="svg1984"
   inkscape:version="1.0.2 (394de47547, 2021-03-26)"
   sodipodi:docname="a-b-cv-level.svg">
  <defs
     id="defs1978" />
  <sodipodi:namedview
     id="base"
     pagecolor="#1a1a1a"
     bordercolor="#666666"
     borderopacity="1.0"
     inkscape:pageopacity="0"
     inkscape:pageshadow="2"
     inkscape:zoom="5.4571429"
     inkscape:cx="39.405086"
     inkscape:cy="28.973862"
     inkscape:document-units="px"
     inkscape:current-layer="layer11"
     inkscape:document-rotation="0"
     showgrid="false"
     units="px"
     inkscape:window-width="1151"
     inkscape:window-height="1038"
     inkscape:window-x="0"
     inkscape:window-y="64"
     inkscape:window-maximized="0"
     showguides="false">
    <inkscape:grid
       type="xygrid"
       id="grid3056" />
  </sodipodi:namedview>
  <metadata
     id="metadata1981">
    <rdf:RDF>
      <cc:Work
         rdf:about="">
        <dc:format>image/svg+xml</dc:format>
        <dc:type
           rdf:resource="http://purl.org/dc/dcmitype/StillImage" />
        <dc:title></dc:title>
      </cc:Work>
    </rdf:RDF>
  </metadata>
  <g
     inkscape:label="Pads"
     inkscape:groupmode="layer"
     id="layer1"
     style="display:inline"
     sodipodi:insensitive="true">
    <path
       d="m 19.721759,9.8812115 c 0,5.4488985 -4.391649,9.8405485 -9.8405483,9.8405485 -5.4488979,0 -9.75922103,-4.39165 -9.75922103,-9.8405485 0,-5.4488984 4.31032313,-9.7592215 9.75922103,-9.7592215 5.4488993,0 9.8405483,4.3103231 9.8405483,9.7592215 z"
       style="fill:#000000;stroke:#ffffff;stroke-width:0.244;stroke-linecap:round;stroke-linejoin:round;stroke-miterlimit:10;stroke-dasharray:none;stroke-opacity:1"
       id="path27212" />
  </g>
  <g
     inkscape:groupmode="layer"
     id="layer11"
     inkscape:label="lower"
     style="display:inline;opacity:1">
    <g
       id="g23042"
       transform="matrix(0.50829277,0,0,0.50829277,-216.85803,-235.15655)"
       style="display:inline;stroke:#ffffff;stroke-opacity:1">
      <path
         d="m 446.07999,500.32001 -14.4,-16.80002"
         style="fill:none;stroke:#ffffff;stroke-width:0.8;stroke-linecap:round;stroke-linejoin:round;stroke-miterlimit:10;stroke-dasharray:none;stroke-opacity:1"
         id="path23044" />
    </g>
    <g
       id="g23046"
       transform="matrix(0.50829277,0,0,0.50829277,-216.85803,-235.15655)"
       style="display:inline;stroke:#ffffff;stroke-opacity:1">
      <path
         d="m 431.67999,483.51999 -3.83999,3.84"
         style="fill:none;stroke:#ffffff;stroke-width:0.8;stroke-linecap:round;stroke-linejoin:round;stroke-miterlimit:10;stroke-dasharray:none;stroke-opacity:1"
         id="path23048" />
    </g>
    <g
       id="g23050"
       transform="matrix(0.50829277,0,0,0.50829277,-216.85803,-235.15655)"
       style="display:inline;stroke:#ffffff;stroke-opacity:1">
      <path
         d="m 441.44,478.23999 h 2.72"
         style="fill:none;stroke:#ffffff;stroke-width:0.8;stroke-linecap:round;stroke-linejoin:round;stroke-miterlimit:10;stroke-dasharray:none;stroke-opacity:1"
         id="path23052" />
    </g>
    <g
       id="g23054"
       transform="matrix(0.50829277,0,0,0.50829277,-216.85803,-235.15655)"
       style="display:inline;stroke:#ffffff;stroke-opacity:1">
      <path
         d="M 440.79999,480 442.72,474.23999 444.64001,480"
         style="fill:none;stroke:#ffffff;stroke-width:0.8;stroke-linecap:round;stroke-linejoin:round;stroke-miterlimit:10;stroke-dasharray:none;stroke-opacity:1"
         id="path23056" />
    </g>
    <g
       id="g23058"
       transform="matrix(0.50829277,0,0,0.50829277,11.10112,7.2787531)"
       style="display:inline;stroke:#ffffff;stroke-opacity:1">
      <path
         d="m 0,0 0.8,0.32 0.32,0.16 0.32,0.64 v 0.8 L 1.12,2.4 0.8,2.72 0.32,3.04 H -1.92 V -2.72 H 0 l 0.64,0.16 0.48,0.96 v 0.48 L 0.8,-0.64 0.64,-0.32 0,0 h -1.92"
         style="fill:none;stroke:#ffffff;stroke-width:0.8;stroke-linecap:round;stroke-linejoin:round;stroke-miterlimit:10;stroke-dasharray:none;stroke-opacity:1"
         id="path23060" />
    </g>
    <g
       id="g23062"
       transform="matrix(0.50829277,0,0,0.50829277,-216.85803,-235.15655)"
       style="display:inline;stroke:#ffffff;stroke-opacity:1">
      <path
         d="M 451.35999,473.44 453.28,471.51999"
         style="fill:none;stroke:#ffffff;stroke-width:0.8;stroke-linecap:round;stroke-linejoin:round;stroke-miterlimit:10;stroke-dasharray:none;stroke-opacity:1"
         id="path23064" />
    </g>
    <g
       id="g23066"
       transform="matrix(0.50829277,0,0,0.50829277,14.598164,7.5227387)"
       style="display:inline;stroke:#ffffff;stroke-opacity:1">
      <path
         d="m 0,0 c 0,5.28 -4.48,9.76 -9.76,9.76 -5.28,0 -9.600001,-4.48 -9.600001,-9.76 0,-5.28 4.320001,-9.6 9.600001,-9.6 C -4.48,-9.6 0,-5.28 0,0 Z"
         style="fill:none;stroke:#ffffff;stroke-width:0.8;stroke-linecap:round;stroke-linejoin:round;stroke-miterlimit:10;stroke-dasharray:none;stroke-opacity:1"
         id="path23068" />
    </g>
    <g
       id="g23098"
       transform="matrix(0.50829277,0,0,0.50829277,-216.85803,-235.15655)"
       style="display:inline;stroke:#ffffff;stroke-opacity:1">
      <path
         d="m 459.04001,483.51999 4.31998,4.32001"
         style="fill:none;stroke:#ffffff;stroke-width:0.8;stroke-linecap:round;stroke-linejoin:round;stroke-miterlimit:10;stroke-dasharray:none;stroke-opacity:1"
         id="path23100" />
    </g>
    <g
       id="g23102"
       transform="matrix(0.50829277,0,0,0.50829277,-216.85803,-235.15655)"
       style="display:inline;stroke:#ffffff;stroke-opacity:1">
      <path
         d="m 446.07999,500.32001 12.96002,-16.80002"
         style="fill:none;stroke:#ffffff;stroke-width:0.8;stroke-linecap:round;stroke-linejoin:round;stroke-miterlimit:10;stroke-dasharray:none;stroke-opacity:1"
         id="path23104" />
    </g>
  </g>
  <g
     inkscape:groupmode="layer"
     id="layer13"
     inkscape:label="upper"
     style="display:inline;opacity:0.1" />
</svg>
