<?xml version="1.0" encoding="UTF-8" standalone="no"?>
<svg
   xmlns:dc="http://purl.org/dc/elements/1.1/"
   xmlns:cc="http://creativecommons.org/ns#"
   xmlns:rdf="http://www.w3.org/1999/02/22-rdf-syntax-ns#"
   xmlns:svg="http://www.w3.org/2000/svg"
   xmlns="http://www.w3.org/2000/svg"
   width="35"
   height="75"
   viewBox="0 0 9.2604169 19.843751"
   version="1.1"
   id="svg1984">
  <defs
     id="defs1978" />
  <metadata
     id="metadata1981">
    <rdf:RDF>
      <cc:Work
         rdf:about="">
        <dc:format>image/svg+xml</dc:format>
        <dc:type
           rdf:resource="http://purl.org/dc/dcmitype/StillImage" />
        <dc:title></dc:title>
      </cc:Work>
    </rdf:RDF>
  </metadata>
  <g
     id="layer1"
     style="display:none">
    <g
       id="g18810"
       transform="matrix(0.50829276,0,0,0.50829276,46.180095,9.8812124)"
       style="display:inline;stroke:#ffffff;stroke-opacity:1">
      <path
         d="m 0,0 c 0,10.72 -8.64,19.360001 -19.360001,19.360001 -10.719999,0 -19.2,-8.640001 -19.2,-19.360001 0,-10.72 8.480001,-19.200001 19.2,-19.200001 C -8.64,-19.200001 0,-10.72 0,0 Z"
         style="fill:none;stroke:#ffffff;stroke-width:0.48;stroke-linecap:round;stroke-linejoin:round;stroke-miterlimit:10;stroke-dasharray:none;stroke-opacity:1"
         id="path18812" />
    </g>
    <path
       d="m 19.721759,9.8812115 c 0,5.4488985 -4.391649,9.8405485 -9.8405483,9.8405485 -5.4488979,0 -9.75922103,-4.39165 -9.75922103,-9.8405485 0,-5.4488984 4.31032313,-9.7592215 9.75922103,-9.7592215 5.4488993,0 9.8405483,4.3103231 9.8405483,9.7592215 z"
       style="fill:#000000;stroke:#ffffff;stroke-width:0.244;stroke-linecap:round;stroke-linejoin:round;stroke-miterlimit:10;stroke-dasharray:none;stroke-opacity:1"
       id="path27212" />
  </g>
  <g
     id="layer6"
     style="display:none">
    <text
       xml:space="preserve"
       style="font-style:italic;font-variant:normal;font-weight:normal;font-stretch:normal;font-size:4px;line-height:1.25;font-family:'iA Writer Duo S';-inkscape-font-specification:'iA Writer Duo S Italic';letter-spacing:0px;word-spacing:0px;fill:#ffffff;stroke-width:0.264583"
       x="0.6796267"
       y="10.981134"
       id="text5547"><tspan
         id="tspan5545"
         x="0.6796267"
         y="10.981134"
         style="font-style:italic;font-variant:normal;font-weight:normal;font-stretch:normal;font-family:'iA Writer Duo S';-inkscape-font-specification:'iA Writer Duo S Italic';fill:#ffffff;stroke-width:0.264583">hold</tspan></text>
  </g>
  <g
     id="layer9"
     style="display:inline">
    <path
       style="display:inline;fill:none;stroke:#ffffff;stroke-width:0.26458334;stroke-linecap:round;stroke-linejoin:round;stroke-miterlimit:4;stroke-dasharray:none;stroke-opacity:1"
       d="M 5.2916668,7.9375003 6.6145836,9.9218752 5.2916668,11.90625"
       id="path3881" />
    <path
       style="display:inline;fill:none;stroke:#ffffff;stroke-width:0.26458334;stroke-linecap:round;stroke-linejoin:round;stroke-miterlimit:4;stroke-dasharray:none;stroke-opacity:1"
       d="M 2.6458333,7.9375003 3.9687501,9.9218752 2.6458333,11.90625"
       id="path7968" />
    <path
       style="display:inline;fill:none;stroke:#ffffff;stroke-width:0.26458334;stroke-linecap:round;stroke-linejoin:round;stroke-miterlimit:4;stroke-dasharray:none;stroke-opacity:1"
       d="M 3.9687501,7.9375003 5.2916669,9.9218752 3.9687501,11.90625"
       id="path7970" />
  </g>
  <g
     id="g5573"
     style="display:none">
    <text
       xml:space="preserve"
       style="font-style:italic;font-variant:normal;font-weight:normal;font-stretch:normal;font-size:4px;line-height:1.25;font-family:'iA Writer Duo S';-inkscape-font-specification:'iA Writer Duo S Italic';letter-spacing:0px;word-spacing:0px;fill:#ffffff;stroke-width:0.264583"
       x="0.29681596"
       y="10.981134"
       id="text5571"><tspan
         id="tspan5569"
         x="0.29681596"
         y="10.981134"
         style="font-style:italic;font-variant:normal;font-weight:normal;font-stretch:normal;font-family:'iA Writer Duo S';-inkscape-font-specification:'iA Writer Duo S Italic';fill:#ffffff;stroke-width:0.264583">tap</tspan></text>
  </g>
  <g
     id="layer7"
     style="display:none">
    <g
       id="g18822"
       transform="matrix(0.50829279,0,0,0.50829279,-240.28016,-125.36533)"
       style="display:inline;stroke:#ffffff;stroke-opacity:1">
      <path
         d="M 484.48001,267.04001 V 269.44"
         style="fill:none;stroke:#ffffff;stroke-width:0.8;stroke-linecap:round;stroke-linejoin:round;stroke-miterlimit:10;stroke-dasharray:none;stroke-opacity:1"
         id="path18824" />
    </g>
    <g
       id="g18826"
       transform="matrix(0.50829279,0,0,0.50829279,-240.28016,-125.36533)"
       style="display:inline;stroke:#ffffff;stroke-opacity:1">
      <path
         d="M 482.56,272.32001 V 274.72"
         style="fill:none;stroke:#ffffff;stroke-width:0.8;stroke-linecap:round;stroke-linejoin:round;stroke-miterlimit:10;stroke-dasharray:none;stroke-opacity:1"
         id="path18828" />
    </g>
    <g
       id="g18830"
       transform="matrix(0.50829279,0,0,0.50829279,-240.28016,-125.36533)"
       style="display:inline;stroke:#ffffff;stroke-opacity:1">
      <path
         d="m 487.20001,265.76001 -4.64001,6.56"
         style="fill:none;stroke:#ffffff;stroke-width:0.8;stroke-linecap:round;stroke-linejoin:round;stroke-miterlimit:10;stroke-dasharray:none;stroke-opacity:1"
         id="path18832" />
    </g>
    <g
       id="g18834"
       transform="matrix(0.50829279,0,0,0.50829279,-240.28016,-125.36533)"
       style="display:inline;stroke:#ffffff;stroke-opacity:1">
      <path
         d="m 484.48001,265.12 v 1.92001"
         style="fill:none;stroke:#ffffff;stroke-width:0.8;stroke-linecap:round;stroke-linejoin:round;stroke-miterlimit:10;stroke-dasharray:none;stroke-opacity:1"
         id="path18836" />
    </g>
    <g
       id="g18838"
       transform="matrix(0.50829279,0,0,0.50829279,-240.28016,-125.36533)"
       style="display:inline;stroke:#ffffff;stroke-opacity:1">
      <path
         d="m 484.48001,265.12 v -5.76001"
         style="fill:none;stroke:#ffffff;stroke-width:0.8;stroke-linecap:round;stroke-linejoin:round;stroke-miterlimit:10;stroke-dasharray:none;stroke-opacity:1"
         id="path18840" />
    </g>
    <g
       id="g18906"
       transform="matrix(0.50829279,0,0,0.50829279,-240.28016,-125.36533)"
       style="display:inline;stroke:#ffffff;stroke-opacity:1">
      <path
         d="M 484.48001,259.35999 V 257.44"
         style="fill:none;stroke:#ffffff;stroke-width:0.8;stroke-linecap:round;stroke-linejoin:round;stroke-miterlimit:10;stroke-dasharray:none;stroke-opacity:1"
         id="path18908" />
    </g>
    <g
       id="g18910"
       transform="matrix(0.50829279,0,0,0.50829279,-240.28016,-125.36533)"
       style="display:inline;stroke:#ffffff;stroke-opacity:1">
      <path
         d="m 484.48001,257.44 v -1.92"
         style="fill:none;stroke:#ffffff;stroke-width:0.8;stroke-linecap:round;stroke-linejoin:round;stroke-miterlimit:10;stroke-dasharray:none;stroke-opacity:1"
         id="path18912" />
    </g>
    <g
       id="g18914"
       transform="matrix(0.50829279,0,0,0.50829279,-240.28016,-125.36533)"
       style="display:inline;stroke:#ffffff;stroke-opacity:1">
      <path
         d="m 484.48001,255.52 c 0,-1.12001 0.79999,-1.91999 1.91998,-1.91999 1.12,0 1.92002,0.79998 1.92002,1.91999"
         style="fill:none;stroke:#ffffff;stroke-width:0.8;stroke-linecap:round;stroke-linejoin:round;stroke-miterlimit:10;stroke-dasharray:none;stroke-opacity:1"
         id="path18916" />
    </g>
    <g
       id="g19050"
       transform="matrix(0.50829279,0,0,0.50829279,-240.28016,-125.36533)"
       style="display:inline;stroke:#ffffff;stroke-opacity:1">
      <path
         d="m 484,276.64001 1.92001,1.43998"
         style="fill:none;stroke:#ffffff;stroke-width:0.8;stroke-linecap:round;stroke-linejoin:round;stroke-miterlimit:10;stroke-dasharray:none;stroke-opacity:1"
         id="path19052" />
    </g>
    <g
       id="g19054"
       transform="matrix(0.50829279,0,0,0.50829279,-240.28016,-125.36533)"
       style="display:inline;stroke:#ffffff;stroke-opacity:1">
      <path
         d="m 482.56,274.72 1.44,1.92001"
         style="fill:none;stroke:#ffffff;stroke-width:0.8;stroke-linecap:round;stroke-linejoin:round;stroke-miterlimit:10;stroke-dasharray:none;stroke-opacity:1"
         id="path19056" />
    </g>
    <g
       id="g21454"
       transform="matrix(0.50829279,0,0,0.50829279,-240.28016,-125.36533)"
       style="display:inline;stroke:#ffffff;stroke-opacity:1">
      <path
         d="m 492,267.84 c 0,0.64001 -0.32001,1.28 -0.79999,1.6 -0.64001,0.32001 -1.28,0.32001 -1.92001,0"
         style="fill:none;stroke:#ffffff;stroke-width:0.8;stroke-linecap:round;stroke-linejoin:round;stroke-miterlimit:10;stroke-dasharray:none;stroke-opacity:1"
         id="path21456" />
    </g>
    <g
       id="g21458"
       transform="matrix(0.50829279,0,0,0.50829279,-240.28016,-125.36533)"
       style="display:inline;stroke:#ffffff;stroke-opacity:1">
      <path
         d="m 489.28,269.44 -1.92001,3.35999"
         style="fill:none;stroke:#ffffff;stroke-width:0.8;stroke-linecap:round;stroke-linejoin:round;stroke-miterlimit:10;stroke-dasharray:none;stroke-opacity:1"
         id="path21460" />
    </g>
    <g
       id="g21462"
       transform="matrix(0.50829279,0,0,0.50829279,-240.28016,-125.36533)"
       style="display:inline;stroke:#ffffff;stroke-opacity:1">
      <path
         d="M 490.23999,267.51999 489.28,269.44"
         style="fill:none;stroke:#ffffff;stroke-width:0.8;stroke-linecap:round;stroke-linejoin:round;stroke-miterlimit:10;stroke-dasharray:none;stroke-opacity:1"
         id="path21464" />
    </g>
    <g
       id="g21466"
       transform="matrix(0.50829279,0,0,0.50829279,7.3600894,9.718569)"
       style="display:inline;stroke:#ffffff;stroke-opacity:1">
      <path
         d="M 0,0 C 0.32,-0.48 0.64,-0.8 1.12,-0.8 1.6,-0.96 2.08,-0.96 2.4,-0.64 2.88,-0.48 3.2,0 3.36,0.48 c 0,0.32 0,0.96 -0.32,1.28"
         style="fill:none;stroke:#ffffff;stroke-width:0.8;stroke-linecap:round;stroke-linejoin:round;stroke-miterlimit:10;stroke-dasharray:none;stroke-opacity:1"
         id="path21468" />
    </g>
    <g
       id="g21470"
       transform="matrix(0.50829279,0,0,0.50829279,-240.28016,-125.36533)"
       style="display:inline;stroke:#ffffff;stroke-opacity:1">
      <path
         d="M 492.16,263.20001 V 265.12"
         style="fill:none;stroke:#ffffff;stroke-width:0.8;stroke-linecap:round;stroke-linejoin:round;stroke-miterlimit:10;stroke-dasharray:none;stroke-opacity:1"
         id="path21472" />
    </g>
    <g
       id="g21474"
       transform="matrix(0.50829279,0,0,0.50829279,-240.28016,-125.36533)"
       style="display:inline;stroke:#ffffff;stroke-opacity:1">
      <path
         d="m 492.16,265.12 v 1.92001"
         style="fill:none;stroke:#ffffff;stroke-width:0.8;stroke-linecap:round;stroke-linejoin:round;stroke-miterlimit:10;stroke-dasharray:none;stroke-opacity:1"
         id="path21476" />
    </g>
    <g
       id="g21478"
       transform="matrix(0.50829279,0,0,0.50829279,-240.28016,-125.36533)"
       style="display:inline;stroke:#ffffff;stroke-opacity:1">
      <path
         d="m 488.32001,263.20001 v 1.44"
         style="fill:none;stroke:#ffffff;stroke-width:0.8;stroke-linecap:round;stroke-linejoin:round;stroke-miterlimit:10;stroke-dasharray:none;stroke-opacity:1"
         id="path21480" />
    </g>
    <g
       id="g21482"
       transform="matrix(0.50829279,0,0,0.50829279,-240.28016,-125.36533)"
       style="display:inline;stroke:#ffffff;stroke-opacity:1">
      <path
         d="m 496,267.35999 c 0,1.12002 -0.79999,1.92001 -1.92001,1.92001 -1.12,0 -1.91999,-0.79999 -1.91999,-1.92001"
         style="fill:none;stroke:#ffffff;stroke-width:0.8;stroke-linecap:round;stroke-linejoin:round;stroke-miterlimit:10;stroke-dasharray:none;stroke-opacity:1"
         id="path21484" />
    </g>
    <g
       id="g21486"
       transform="matrix(0.50829279,0,0,0.50829279,-240.28016,-125.36533)"
       style="display:inline;stroke:#ffffff;stroke-opacity:1">
      <path
         d="m 499.84,270.88 v 1.91999"
         style="fill:none;stroke:#ffffff;stroke-width:0.8;stroke-linecap:round;stroke-linejoin:round;stroke-miterlimit:10;stroke-dasharray:none;stroke-opacity:1"
         id="path21488" />
    </g>
    <g
       id="g21490"
       transform="matrix(0.50829279,0,0,0.50829279,-240.28016,-125.36533)"
       style="display:inline;stroke:#ffffff;stroke-opacity:1">
      <path
         d="m 499.84,272.79999 -1.91999,3.84002"
         style="fill:none;stroke:#ffffff;stroke-width:0.8;stroke-linecap:round;stroke-linejoin:round;stroke-miterlimit:10;stroke-dasharray:none;stroke-opacity:1"
         id="path21492" />
    </g>
    <g
       id="g21494"
       transform="matrix(0.50829279,0,0,0.50829279,-240.28016,-125.36533)"
       style="display:inline;stroke:#ffffff;stroke-opacity:1">
      <path
         d="m 499.84,255.52 v 15.36"
         style="fill:none;stroke:#ffffff;stroke-width:0.8;stroke-linecap:round;stroke-linejoin:round;stroke-miterlimit:10;stroke-dasharray:none;stroke-opacity:1"
         id="path21496" />
    </g>
    <g
       id="g21498"
       transform="matrix(0.50829279,0,0,0.50829279,-240.28016,-125.36533)"
       style="display:inline;stroke:#ffffff;stroke-opacity:1">
      <path
         d="m 496,265.12 v 3.83999"
         style="fill:none;stroke:#ffffff;stroke-width:0.8;stroke-linecap:round;stroke-linejoin:round;stroke-miterlimit:10;stroke-dasharray:none;stroke-opacity:1"
         id="path21500" />
    </g>
    <g
       id="g21502"
       transform="matrix(0.50829279,0,0,0.50829279,-240.28016,-125.36533)"
       style="display:inline;stroke:#ffffff;stroke-opacity:1">
      <path
         d="m 488.32001,255.52 v 7.68001"
         style="fill:none;stroke:#ffffff;stroke-width:0.8;stroke-linecap:round;stroke-linejoin:round;stroke-miterlimit:10;stroke-dasharray:none;stroke-opacity:1"
         id="path21504" />
    </g>
    <g
       id="g21506"
       transform="matrix(0.50829279,0,0,0.50829279,-240.28016,-125.36533)"
       style="display:inline;stroke:#ffffff;stroke-opacity:1">
      <path
         d="m 496,255.52 v 9.6"
         style="fill:none;stroke:#ffffff;stroke-width:0.8;stroke-linecap:round;stroke-linejoin:round;stroke-miterlimit:10;stroke-dasharray:none;stroke-opacity:1"
         id="path21508" />
    </g>
    <g
       id="g21510"
       transform="matrix(0.50829279,0,0,0.50829279,-240.28016,-125.36533)"
       style="display:inline;stroke:#ffffff;stroke-opacity:1">
      <path
         d="m 488.32001,263.20001 c 0,-1.12002 0.79999,-1.92001 1.91998,-1.92001 1.12,0 1.92001,0.79999 1.92001,1.92001"
         style="fill:none;stroke:#ffffff;stroke-width:0.8;stroke-linecap:round;stroke-linejoin:round;stroke-miterlimit:10;stroke-dasharray:none;stroke-opacity:1"
         id="path21512" />
    </g>
    <g
       id="g21514"
       transform="matrix(0.50829279,0,0,0.50829279,-240.28016,-125.36533)"
       style="display:inline;stroke:#ffffff;stroke-opacity:1">
      <path
         d="m 492.16,263.20001 c 0,-1.12002 0.79999,-1.92001 1.91999,-1.92001 1.12002,0 1.92001,0.79999 1.92001,1.92001"
         style="fill:none;stroke:#ffffff;stroke-width:0.8;stroke-linecap:round;stroke-linejoin:round;stroke-miterlimit:10;stroke-dasharray:none;stroke-opacity:1"
         id="path21516" />
    </g>
    <g
       id="g21518"
       transform="matrix(0.50829279,0,0,0.50829279,-240.28016,-125.36533)"
       style="display:inline;stroke:#ffffff;stroke-opacity:1">
      <path
         d="m 496,255.52 c 0,-1.12001 0.79999,-1.91999 1.92001,-1.91999 1.12,0 1.91999,0.79998 1.91999,1.91999"
         style="fill:none;stroke:#ffffff;stroke-width:0.8;stroke-linecap:round;stroke-linejoin:round;stroke-miterlimit:10;stroke-dasharray:none;stroke-opacity:1"
         id="path21520" />
    </g>
  </g>
  <g
     id="layer8"
     style="display:none">
    <g
       id="g26118"
       transform="matrix(0.50829279,0,0,0.50829279,-357.39082,-191.24008)"
       style="display:inline;stroke:#ffffff;stroke-opacity:1">
      <path
         d="M 722.56,413.92001 735.52002,397.12"
         style="fill:none;stroke:#ffffff;stroke-width:0.8;stroke-linecap:round;stroke-linejoin:round;stroke-miterlimit:10;stroke-dasharray:none;stroke-opacity:1"
         id="path26120" />
    </g>
    <g
       id="g25350"
       transform="matrix(0.50829279,0,0,0.50829279,-357.39082,-191.24008)"
       style="display:inline;stroke:#ffffff;stroke-opacity:1">
      <path
         d="M 725.91998,388.95999 729.76001,385.12"
         style="fill:none;stroke:#ffffff;stroke-width:0.8;stroke-linecap:round;stroke-linejoin:round;stroke-miterlimit:10;stroke-dasharray:none;stroke-opacity:1"
         id="path25352" />
    </g>
    <g
       id="g25354"
       transform="matrix(0.50829279,0,0,0.50829279,-357.39082,-191.24008)"
       style="display:inline;stroke:#ffffff;stroke-opacity:1">
      <path
         d="m 720.79999,391.84 h 2.72003"
         style="fill:none;stroke:#ffffff;stroke-width:0.8;stroke-linecap:round;stroke-linejoin:round;stroke-miterlimit:10;stroke-dasharray:none;stroke-opacity:1"
         id="path25356" />
    </g>
    <g
       id="g25358"
       transform="matrix(0.50829279,0,0,0.50829279,-357.39082,-191.24008)"
       style="display:inline;stroke:#ffffff;stroke-opacity:1">
      <path
         d="M 720.15997,393.60001 722.08002,387.84 724,393.60001"
         style="fill:none;stroke:#ffffff;stroke-width:0.8;stroke-linecap:round;stroke-linejoin:round;stroke-miterlimit:10;stroke-dasharray:none;stroke-opacity:1"
         id="path25360" />
    </g>
    <g
       id="g25362"
       transform="matrix(0.50829279,0,0,0.50829279,14.598195,7.5227423)"
       style="display:inline;stroke:#ffffff;stroke-opacity:1">
      <path
         d="m 0,0 c 0,5.28 -4.48,9.76 -9.76,9.76 -5.28,0 -9.600001,-4.48 -9.600001,-9.76 0,-5.28 4.320001,-9.6 9.600001,-9.6 C -4.48,-9.6 0,-5.28 0,0 Z"
         style="fill:none;stroke:#ffffff;stroke-width:0.8;stroke-linecap:round;stroke-linejoin:round;stroke-miterlimit:10;stroke-dasharray:none;stroke-opacity:1"
         id="path25364" />
    </g>
    <g
       id="g26106"
       transform="matrix(0.50829279,0,0,0.50829279,-357.39082,-191.24008)"
       style="display:inline;stroke:#ffffff;stroke-opacity:1">
      <path
         d="m 708.15997,397.12 -3.83996,3.83999"
         style="fill:none;stroke:#ffffff;stroke-width:0.8;stroke-linecap:round;stroke-linejoin:round;stroke-miterlimit:10;stroke-dasharray:none;stroke-opacity:1"
         id="path26108" />
    </g>
    <g
       id="g26110"
       transform="matrix(0.50829279,0,0,0.50829279,-357.39082,-191.24008)"
       style="display:inline;stroke:#ffffff;stroke-opacity:1">
      <path
         d="M 722.56,413.92001 708.15997,397.12"
         style="fill:none;stroke:#ffffff;stroke-width:0.8;stroke-linecap:round;stroke-linejoin:round;stroke-miterlimit:10;stroke-dasharray:none;stroke-opacity:1"
         id="path26112" />
    </g>
    <g
       id="g26114"
       transform="matrix(0.50829279,0,0,0.50829279,-357.39082,-191.24008)"
       style="display:inline;stroke:#ffffff;stroke-opacity:1">
      <path
         d="m 735.52002,397.12 4.32001,4.32"
         style="fill:none;stroke:#ffffff;stroke-width:0.8;stroke-linecap:round;stroke-linejoin:round;stroke-miterlimit:10;stroke-dasharray:none;stroke-opacity:1"
         id="path26116" />
    </g>
  </g>
  <g
     id="layer4"
     style="display:none">
    <g
       id="g27186"
       transform="matrix(0.50829276,0,0,0.50829276,-217.10201,-302.2512)"
       style="display:inline;stroke:#ffffff;stroke-opacity:1">
      <path
         d="m 454.23999,623.20001 c -4.63998,4 -11.67999,3.67999 -16.16,-0.64001 -4.31998,-4.47998 -4.63999,-11.35999 -0.63999,-16.15998"
         style="fill:none;stroke:#ffffff;stroke-width:0.8;stroke-linecap:round;stroke-linejoin:round;stroke-miterlimit:10;stroke-dasharray:none;stroke-opacity:1"
         id="path27188" />
    </g>
    <g
       id="g27190"
       transform="matrix(0.50829276,0,0,0.50829276,-217.10201,-302.2512)"
       style="display:inline;stroke:#ffffff;stroke-opacity:1">
      <path
         d="m 456.64001,625.12 c -5.76001,5.28002 -14.72,5.28002 -20.48001,-0.15998 -5.6,-5.44 -6.23999,-14.40002 -1.11999,-20.48004"
         style="fill:none;stroke:#ffffff;stroke-width:0.8;stroke-linecap:round;stroke-linejoin:round;stroke-miterlimit:10;stroke-dasharray:none;stroke-opacity:1"
         id="path27192" />
    </g>
    <g
       id="g27218"
       transform="matrix(0.50829276,0,0,0.50829276,-217.10201,-302.2512)"
       style="display:inline;stroke:#ffffff;stroke-opacity:1">
      <path
         d="m 449.76001,619.03998 c -2.40002,1.44 -5.44,1.11999 -7.36002,-0.95996 -2.07998,-1.92005 -2.23999,-5.12 -0.63998,-7.36005"
         style="fill:none;stroke:#ffffff;stroke-width:0.8;stroke-linecap:round;stroke-linejoin:round;stroke-miterlimit:10;stroke-dasharray:none;stroke-opacity:1"
         id="path27220" />
    </g>
    <g
       id="g27222"
       transform="matrix(0.50829276,0,0,0.50829276,-217.10201,-302.2512)"
       style="display:inline;stroke:#ffffff;stroke-opacity:1">
      <path
         d="m 452.16,620.96002 c -3.51999,2.88001 -8.48001,2.71997 -11.67999,-0.48004 -3.36001,-3.03998 -3.84,-8 -1.12002,-11.67999"
         style="fill:none;stroke:#ffffff;stroke-width:0.8;stroke-linecap:round;stroke-linejoin:round;stroke-miterlimit:10;stroke-dasharray:none;stroke-opacity:1"
         id="path27224" />
    </g>
  </g>
  <g
     id="layer5"
     style="display:none">
    <g
       id="g27194"
       transform="matrix(0.50829277,0,0,0.50829277,-193.67988,-302.25122)"
       style="display:inline;stroke:#ffffff;stroke-opacity:1">
      <path
         d="m 397.28,608.64001 c 2.39999,-1.44 5.44,-1.11999 7.36001,0.95997 2.07999,1.92004 2.23999,5.11999 0.63999,7.36004"
         style="fill:none;stroke:#ffffff;stroke-width:0.8;stroke-linecap:round;stroke-linejoin:round;stroke-miterlimit:10;stroke-dasharray:none;stroke-opacity:1"
         id="path27196" />
    </g>
    <g
       id="g27198"
       transform="matrix(0.50829277,0,0,0.50829277,-193.67988,-302.25122)"
       style="display:inline;stroke:#ffffff;stroke-opacity:1">
      <path
         d="m 394.88,606.71997 c 3.51999,-2.87994 8.47999,-2.71997 11.68,0.48004 3.36001,3.03998 3.83999,8 1.11999,11.67999"
         style="fill:none;stroke:#ffffff;stroke-width:0.8;stroke-linecap:round;stroke-linejoin:round;stroke-miterlimit:10;stroke-dasharray:none;stroke-opacity:1"
         id="path27200" />
    </g>
    <g
       id="g27202"
       transform="matrix(0.50829277,0,0,0.50829277,-193.67988,-302.25122)"
       style="display:inline;stroke:#ffffff;stroke-opacity:1">
      <path
         d="m 392.79999,604.47998 c 4.64001,-4 11.68002,-3.67999 16.16,0.64002 4.32001,4.47998 4.64002,11.35998 0.64002,16.16003"
         style="fill:none;stroke:#ffffff;stroke-width:0.8;stroke-linecap:round;stroke-linejoin:round;stroke-miterlimit:10;stroke-dasharray:none;stroke-opacity:1"
         id="path27204" />
    </g>
    <g
       id="g27206"
       transform="matrix(0.50829277,0,0,0.50829277,-193.67988,-302.25122)"
       style="display:inline;stroke:#ffffff;stroke-opacity:1">
      <path
         d="m 390.39999,602.56 c 5.76001,-5.27997 14.72001,-5.27997 20.48001,0.15997 5.60001,5.44 6.24,14.40003 1.12,20.48004"
         style="fill:none;stroke:#ffffff;stroke-width:0.8;stroke-linecap:round;stroke-linejoin:round;stroke-miterlimit:10;stroke-dasharray:none;stroke-opacity:1"
         id="path27208" />
    </g>
  </g>
  <g
     id="layer3"
     style="display:inline;opacity:1">
    <g
       id="g18582"
       transform="matrix(0.50829276,0,0,0.50829276,-190.39969,-125.36532)"
       style="display:inline;opacity:1;stroke:#ffffff;stroke-opacity:1">
      <path
         d="m 436.95999,276.16 v -4.32"
         style="fill:none;stroke:#ffffff;stroke-width:0.8;stroke-linecap:round;stroke-linejoin:round;stroke-miterlimit:10;stroke-dasharray:none;stroke-opacity:1"
         id="path18584" />
    </g>
    <g
       id="g18586"
       transform="matrix(0.50829276,0,0,0.50829276,-190.39969,-125.36532)"
       style="display:inline;opacity:1;stroke:#ffffff;stroke-opacity:1">
      <path
         d="M 438.39999,268.48001 V 278.56"
         style="fill:none;stroke:#ffffff;stroke-width:0.8;stroke-linecap:round;stroke-linejoin:round;stroke-miterlimit:10;stroke-dasharray:none;stroke-opacity:1"
         id="path18588" />
    </g>
    <g
       id="g18594"
       transform="matrix(0.50829276,0,0,0.50829276,-190.39969,-125.36532)"
       style="display:inline;opacity:1;stroke:#ffffff;stroke-opacity:1">
      <path
         d="m 449.92001,271.84 v 3.36001"
         style="fill:none;stroke:#ffffff;stroke-width:0.8;stroke-linecap:round;stroke-linejoin:round;stroke-miterlimit:10;stroke-dasharray:none;stroke-opacity:1"
         id="path18596" />
    </g>
    <g
       id="g18598"
       transform="matrix(0.50829276,0,0,0.50829276,-190.39969,-125.36532)"
       style="display:inline;opacity:1;stroke:#ffffff;stroke-opacity:1">
      <path
         d="m 447.04001,277.12 v -6.24"
         style="fill:none;stroke:#ffffff;stroke-width:0.8;stroke-linecap:round;stroke-linejoin:round;stroke-miterlimit:10;stroke-dasharray:none;stroke-opacity:1"
         id="path18600" />
    </g>
    <g
       id="g18602"
       transform="matrix(0.50829276,0,0,0.50829276,-190.39969,-125.36532)"
       style="display:inline;opacity:1;stroke:#ffffff;stroke-opacity:1">
      <path
         d="m 448.48001,268.48001 v 12"
         style="fill:none;stroke:#ffffff;stroke-width:0.8;stroke-linecap:round;stroke-linejoin:round;stroke-miterlimit:10;stroke-dasharray:none;stroke-opacity:1"
         id="path18604" />
    </g>
    <g
       id="g18606"
       transform="matrix(0.50829276,0,0,0.50829276,-190.39969,-125.36532)"
       style="display:inline;opacity:1;stroke:#ffffff;stroke-opacity:1">
      <path
         d="m 452.79999,277.60001 v -6.24002"
         style="fill:none;stroke:#ffffff;stroke-width:0.8;stroke-linecap:round;stroke-linejoin:round;stroke-miterlimit:10;stroke-dasharray:none;stroke-opacity:1"
         id="path18608" />
    </g>
    <g
       id="g18610"
       transform="matrix(0.50829276,0,0,0.50829276,-190.39969,-125.36532)"
       style="display:inline;opacity:1;stroke:#ffffff;stroke-opacity:1">
      <path
         d="m 447.04001,270.88 v 6.24"
         style="fill:none;stroke:#ffffff;stroke-width:0.8;stroke-linecap:round;stroke-linejoin:round;stroke-miterlimit:10;stroke-dasharray:none;stroke-opacity:1"
         id="path18612" />
    </g>
    <g
       id="g18614"
       transform="matrix(0.50829276,0,0,0.50829276,-190.39969,-125.36532)"
       style="display:inline;opacity:1;stroke:#ffffff;stroke-opacity:1">
      <path
         d="m 442.72,274.72 v -0.48001"
         style="fill:none;stroke:#ffffff;stroke-width:0.8;stroke-linecap:round;stroke-linejoin:round;stroke-miterlimit:10;stroke-dasharray:none;stroke-opacity:1"
         id="path18616" />
    </g>
    <g
       id="g18618"
       transform="matrix(0.50829276,0,0,0.50829276,-190.39969,-125.36532)"
       style="display:inline;opacity:1;stroke:#ffffff;stroke-opacity:1">
      <path
         d="m 444.16,276.16 v -3.36001"
         style="fill:none;stroke:#ffffff;stroke-width:0.8;stroke-linecap:round;stroke-linejoin:round;stroke-miterlimit:10;stroke-dasharray:none;stroke-opacity:1"
         id="path18620" />
    </g>
    <g
       id="g18622"
       transform="matrix(0.50829276,0,0,0.50829276,-190.39969,-125.36532)"
       style="display:inline;opacity:1;stroke:#ffffff;stroke-opacity:1">
      <path
         d="m 441.28,270.39999 v 6.24002"
         style="fill:none;stroke:#ffffff;stroke-width:0.8;stroke-linecap:round;stroke-linejoin:round;stroke-miterlimit:10;stroke-dasharray:none;stroke-opacity:1"
         id="path18624" />
    </g>
    <g
       id="g18626"
       transform="matrix(0.50829276,0,0,0.50829276,-190.39969,-125.36532)"
       style="display:inline;opacity:1;stroke:#ffffff;stroke-opacity:1">
      <path
         d="m 445.60001,279.51999 v -12"
         style="fill:none;stroke:#ffffff;stroke-width:0.8;stroke-linecap:round;stroke-linejoin:round;stroke-miterlimit:10;stroke-dasharray:none;stroke-opacity:1"
         id="path18628" />
    </g>
    <g
       id="g18630"
       transform="matrix(0.50829276,0,0,0.50829276,-190.39969,-125.36532)"
       style="display:inline;opacity:1;stroke:#ffffff;stroke-opacity:1">
      <path
         d="m 439.84,272.79999 v 2.88"
         style="fill:none;stroke:#ffffff;stroke-width:0.8;stroke-linecap:round;stroke-linejoin:round;stroke-miterlimit:10;stroke-dasharray:none;stroke-opacity:1"
         id="path18632" />
    </g>
    <g
       id="g18654"
       transform="matrix(0.50829276,0,0,0.50829276,-190.39969,-125.36532)"
       style="display:inline;opacity:1;stroke:#ffffff;stroke-opacity:1">
      <path
         d="m 435.51999,274.72 v -1.44"
         style="fill:none;stroke:#ffffff;stroke-width:0.8;stroke-linecap:round;stroke-linejoin:round;stroke-miterlimit:10;stroke-dasharray:none;stroke-opacity:1"
         id="path18656" />
    </g>
    <g
       id="g18854"
       transform="matrix(0.50829276,0,0,0.50829276,-190.39969,-125.36532)"
       style="display:inline;opacity:1;stroke:#ffffff;stroke-opacity:1">
      <path
         d="m 457.12,271.84 v 4.32"
         style="fill:none;stroke:#ffffff;stroke-width:0.8;stroke-linecap:round;stroke-linejoin:round;stroke-miterlimit:10;stroke-dasharray:none;stroke-opacity:1"
         id="path18856" />
    </g>
    <g
       id="g19006"
       transform="matrix(0.50829276,0,0,0.50829276,-190.39969,-125.36532)"
       style="display:inline;opacity:1;stroke:#ffffff;stroke-opacity:1">
      <path
         d="m 458.56,273.28 v 1.44"
         style="fill:none;stroke:#ffffff;stroke-width:0.8;stroke-linecap:round;stroke-linejoin:round;stroke-miterlimit:10;stroke-dasharray:none;stroke-opacity:1"
         id="path19008" />
    </g>
    <g
       id="g19034"
       transform="matrix(0.50829276,0,0,0.50829276,-190.39969,-125.36532)"
       style="display:inline;opacity:1;stroke:#ffffff;stroke-opacity:1">
      <path
         d="m 454.23999,275.20001 v -2.88"
         style="fill:none;stroke:#ffffff;stroke-width:0.8;stroke-linecap:round;stroke-linejoin:round;stroke-miterlimit:10;stroke-dasharray:none;stroke-opacity:1"
         id="path19036" />
    </g>
    <g
       id="g19038"
       transform="matrix(0.50829276,0,0,0.50829276,-190.39969,-125.36532)"
       style="display:inline;opacity:1;stroke:#ffffff;stroke-opacity:1">
      <path
         d="m 451.35999,273.28 v 0.48001"
         style="fill:none;stroke:#ffffff;stroke-width:0.8;stroke-linecap:round;stroke-linejoin:round;stroke-miterlimit:10;stroke-dasharray:none;stroke-opacity:1"
         id="path19040" />
    </g>
    <g
       id="g19042"
       transform="matrix(0.50829276,0,0,0.50829276,-190.39969,-125.36532)"
       style="display:inline;opacity:1;stroke:#ffffff;stroke-opacity:1">
      <path
         d="M 455.67999,279.51999 V 269.44"
         style="fill:none;stroke:#ffffff;stroke-width:0.8;stroke-linecap:round;stroke-linejoin:round;stroke-miterlimit:10;stroke-dasharray:none;stroke-opacity:1"
         id="path19044" />
    </g>
  </g>
  <g
     id="layer2"
     style="display:inline;opacity:1">
    <g
       id="g18590"
       transform="matrix(0.50829276,0,0,0.50829276,-190.39969,-125.36532)"
       style="display:inline;stroke:#ffffff;stroke-opacity:1">
      <path
         d="m 429.76001,259.84 c 0,-2.4 1.91998,-4.32 4.31998,-4.32 2.40002,0 4.32,1.92 4.32,4.32"
         style="fill:none;stroke:#ffffff;stroke-width:0.8;stroke-linecap:round;stroke-linejoin:round;stroke-miterlimit:10;stroke-dasharray:none;stroke-opacity:1"
         id="path18592" />
    </g>
    <g
       id="g18794"
       transform="matrix(0.50829276,0,0,0.50829276,-190.39969,-125.36532)"
       style="display:inline;stroke:#ffffff;stroke-opacity:1">
      <path
         d="m 461.44,264.16 1.44,-3.83999"
         style="fill:none;stroke:#ffffff;stroke-width:0.8;stroke-linecap:round;stroke-linejoin:round;stroke-miterlimit:10;stroke-dasharray:none;stroke-opacity:1"
         id="path18796" />
    </g>
    <g
       id="g18798"
       transform="matrix(0.50829276,0,0,0.50829276,-190.39969,-125.36532)"
       style="display:inline;stroke:#ffffff;stroke-opacity:1">
      <path
         d="m 454.23999,255.52 7.20001,8.64"
         style="fill:none;stroke:#ffffff;stroke-width:0.8;stroke-linecap:round;stroke-linejoin:round;stroke-miterlimit:10;stroke-dasharray:none;stroke-opacity:1"
         id="path18800" />
    </g>
    <g
       id="g18802"
       transform="matrix(0.50829276,0,0,0.50829276,-190.39969,-125.36532)"
       style="display:inline;stroke:#ffffff;stroke-opacity:1">
      <path
         d="M 451.84,260.32001 454.23999,255.52"
         style="fill:none;stroke:#ffffff;stroke-width:0.8;stroke-linecap:round;stroke-linejoin:round;stroke-miterlimit:10;stroke-dasharray:none;stroke-opacity:1"
         id="path18804" />
    </g>
    <g
       id="g18806"
       transform="matrix(0.50829276,0,0,0.50829276,-190.39969,-125.36532)"
       style="display:inline;stroke:#ffffff;stroke-opacity:1">
      <path
         d="m 454.23999,264.16 v -3.83999"
         style="fill:none;stroke:#ffffff;stroke-width:0.8;stroke-linecap:round;stroke-linejoin:round;stroke-miterlimit:10;stroke-dasharray:none;stroke-opacity:1"
         id="path18808" />
    </g>
    <g
       id="g18990"
       transform="matrix(0.50829276,0,0,0.50829276,-190.39969,-125.36532)"
       style="display:inline;stroke:#ffffff;stroke-opacity:1">
      <path
         d="m 449.44,255.52 v 8.64"
         style="fill:none;stroke:#ffffff;stroke-width:0.8;stroke-linecap:round;stroke-linejoin:round;stroke-miterlimit:10;stroke-dasharray:none;stroke-opacity:1"
         id="path18992" />
    </g>
    <g
       id="g18994"
       transform="matrix(0.50829276,0,0,0.50829276,-190.39969,-125.36532)"
       style="display:inline;stroke:#ffffff;stroke-opacity:1">
      <path
         d="m 442.72,255.52 h 6.72"
         style="fill:none;stroke:#ffffff;stroke-width:0.8;stroke-linecap:round;stroke-linejoin:round;stroke-miterlimit:10;stroke-dasharray:none;stroke-opacity:1"
         id="path18996" />
    </g>
    <g
       id="g18998"
       transform="matrix(0.50829276,0,0,0.50829276,-190.39969,-125.36532)"
       style="display:inline;stroke:#ffffff;stroke-opacity:1">
      <path
         d="m 442.72,259.84 v -4.32"
         style="fill:none;stroke:#ffffff;stroke-width:0.8;stroke-linecap:round;stroke-linejoin:round;stroke-miterlimit:10;stroke-dasharray:none;stroke-opacity:1"
         id="path19000" />
    </g>
    <g
       id="g19002"
       transform="matrix(0.50829276,0,0,0.50829276,-190.39969,-125.36532)"
       style="display:inline;stroke:#ffffff;stroke-opacity:1">
      <path
         d="m 447.04001,259.84 c 0,2.39999 -1.92001,4.32 -4.32001,4.32 -2.39999,0 -4.32001,-1.92001 -4.32001,-4.32"
         style="fill:none;stroke:#ffffff;stroke-width:0.8;stroke-linecap:round;stroke-linejoin:round;stroke-miterlimit:10;stroke-dasharray:none;stroke-opacity:1"
         id="path19004" />
    </g>
    <g
       id="g19046"
       transform="matrix(0.50829276,0,0,0.50829276,-190.39969,-125.36532)"
       style="display:inline;stroke:#ffffff;stroke-opacity:1">
      <path
         d="m 449.44,264.16 h 4.79999"
         style="fill:none;stroke:#ffffff;stroke-width:0.8;stroke-linecap:round;stroke-linejoin:round;stroke-miterlimit:10;stroke-dasharray:none;stroke-opacity:1"
         id="path19048" />
    </g>
  </g>
</svg>
