<?xml version="1.0" encoding="UTF-8" standalone="no"?>
<svg
   xmlns:dc="http://purl.org/dc/elements/1.1/"
   xmlns:cc="http://creativecommons.org/ns#"
   xmlns:rdf="http://www.w3.org/1999/02/22-rdf-syntax-ns#"
   xmlns:svg="http://www.w3.org/2000/svg"
   xmlns="http://www.w3.org/2000/svg"
   xmlns:sodipodi="http://sodipodi.sourceforge.net/DTD/sodipodi-0.dtd"
   xmlns:inkscape="http://www.inkscape.org/namespaces/inkscape"
   width="75"
   height="75"
   viewBox="0 0 19.84375 19.843751"
   version="1.1"
   id="svg1984"
   inkscape:version="1.0.2 (394de47547, 2021-03-26)"
   sodipodi:docname="delay--reverb.svg">
  <defs
     id="defs1978" />
  <sodipodi:namedview
     id="base"
     pagecolor="#1a1a1a"
     bordercolor="#666666"
     borderopacity="1.0"
     inkscape:pageopacity="0"
     inkscape:pageshadow="2"
     inkscape:zoom="2.7285714"
     inkscape:cx="36.996189"
     inkscape:cy="44.259179"
     inkscape:document-units="px"
     inkscape:current-layer="layer11"
     inkscape:document-rotation="0"
     showgrid="false"
     units="px"
     inkscape:window-width="1151"
     inkscape:window-height="1038"
     inkscape:window-x="0"
     inkscape:window-y="64"
     inkscape:window-maximized="0"
     showguides="false">
    <inkscape:grid
       type="xygrid"
       id="grid3056" />
  </sodipodi:namedview>
  <metadata
     id="metadata1981">
    <rdf:RDF>
      <cc:Work
         rdf:about="">
        <dc:format>image/svg+xml</dc:format>
        <dc:type
           rdf:resource="http://purl.org/dc/dcmitype/StillImage" />
        <dc:title></dc:title>
      </cc:Work>
    </rdf:RDF>
  </metadata>
  <g
     inkscape:label="Pads"
     inkscape:groupmode="layer"
     id="layer1"
     style="display:inline"
     sodipodi:insensitive="true">
    <path
       d="m 19.721759,9.8812115 c 0,5.4488985 -4.391649,9.8405485 -9.8405483,9.8405485 -5.4488979,0 -9.75922103,-4.39165 -9.75922103,-9.8405485 0,-5.4488984 4.31032313,-9.7592215 9.75922103,-9.7592215 5.4488993,0 9.8405483,4.3103231 9.8405483,9.7592215 z"
       style="fill:#000000;stroke:#ffffff;stroke-width:0.244;stroke-linecap:round;stroke-linejoin:round;stroke-miterlimit:10;stroke-dasharray:none;stroke-opacity:1"
       id="path27212" />
  </g>
  <g
     inkscape:groupmode="layer"
     id="layer11"
     inkscape:label="lower"
     style="display:inline;opacity:1">
    <g
       id="g19610"
       transform="matrix(0.50829277,0,0,0.50829277,-216.85803,-169.28182)"
       style="display:inline;stroke:#ffffff;stroke-opacity:1">
      <path
         d="M 431.67999,344.32001 C 431.84,344 432,343.67999 432.16,343.35999"
         style="fill:none;stroke:#ffffff;stroke-width:0.8;stroke-linecap:round;stroke-linejoin:round;stroke-miterlimit:10;stroke-dasharray:none;stroke-opacity:1"
         id="path19612" />
    </g>
    <g
       id="g19614"
       transform="matrix(0.50829277,0,0,0.50829277,-216.85803,-169.28182)"
       style="display:inline;stroke:#ffffff;stroke-opacity:1">
      <path
         d="m 429.60001,350.56 c 0.16,-1.44 0.63998,-2.88001 1.11999,-4.32001"
         style="fill:none;stroke:#ffffff;stroke-width:0.8;stroke-linecap:round;stroke-linejoin:round;stroke-miterlimit:10;stroke-dasharray:none;stroke-opacity:1"
         id="path19616" />
    </g>
    <g
       id="g19618"
       transform="matrix(0.50829277,0,0,0.50829277,-216.85803,-169.28182)"
       style="display:inline;stroke:#ffffff;stroke-opacity:1">
      <path
         d="m 429.44,354.39999 c -0.16,-0.47998 -0.16,-0.95999 -0.16,-1.44"
         style="fill:none;stroke:#ffffff;stroke-width:0.8;stroke-linecap:round;stroke-linejoin:round;stroke-miterlimit:10;stroke-dasharray:none;stroke-opacity:1"
         id="path19620" />
    </g>
    <g
       id="g19622"
       transform="matrix(0.50829277,0,0,0.50829277,-216.85803,-169.28182)"
       style="display:inline;stroke:#ffffff;stroke-opacity:1">
      <path
         d="m 435.35999,349.12 c 0.32,-0.79999 0.64001,-1.60001 1.12002,-2.4"
         style="fill:none;stroke:#ffffff;stroke-width:0.8;stroke-linecap:round;stroke-linejoin:round;stroke-miterlimit:10;stroke-dasharray:none;stroke-opacity:1"
         id="path19624" />
    </g>
    <g
       id="g19626"
       transform="matrix(0.50829277,0,0,0.50829277,-216.85803,-169.28182)"
       style="display:inline;stroke:#ffffff;stroke-opacity:1">
      <path
         d="m 438.07999,344.48001 c 4.48001,-4.32001 11.36001,-4.32001 15.84002,0 4.31998,4.16 4.47998,11.19998 0.31998,15.67999"
         style="fill:none;stroke:#ffffff;stroke-width:0.8;stroke-linecap:round;stroke-linejoin:round;stroke-miterlimit:10;stroke-dasharray:none;stroke-opacity:1"
         id="path19628" />
    </g>
    <g
       id="g19630"
       transform="matrix(0.50829277,0,0,0.50829277,3.7816933,4.0256681)"
       style="display:inline;stroke:#ffffff;stroke-opacity:1">
      <path
         d="m 0,0 c 3.04,-3.2 7.2,-4.96 11.68,-5.12 4.32,-0.16 8.64,1.6 11.84,4.64 3.199999,3.04 4.96,7.2 5.119999,11.68 0.16,4.32 -1.599998,8.64 -4.639999,11.840001"
         style="fill:none;stroke:#ffffff;stroke-width:0.8;stroke-linecap:round;stroke-linejoin:round;stroke-miterlimit:10;stroke-dasharray:none;stroke-opacity:1"
         id="path19632" />
    </g>
    <g
       id="g19634"
       transform="matrix(0.50829277,0,0,0.50829277,-216.85803,-169.28182)"
       style="display:inline;stroke:#ffffff;stroke-opacity:1">
      <path
         d="m 441.12,347.20001 c 2.88,-2.56 7.20001,-2.56 9.92001,0.15998 2.72,2.72 2.88,7.04 0.31998,9.92001"
         style="fill:none;stroke:#ffffff;stroke-width:0.8;stroke-linecap:round;stroke-linejoin:round;stroke-miterlimit:10;stroke-dasharray:none;stroke-opacity:1"
         id="path19636" />
    </g>
    <g
       id="g19646"
       transform="matrix(0.50829277,0,0,0.50829277,-216.85803,-169.28182)"
       style="display:inline;stroke:#ffffff;stroke-opacity:1">
      <path
         d="m 443.20001,349.12 c 1.75998,-1.44001 4.31998,-1.44001 5.91999,0.16 1.76,1.76001 1.76,4.32001 0.32,6.07999"
         style="fill:none;stroke:#ffffff;stroke-width:0.8;stroke-linecap:round;stroke-linejoin:round;stroke-miterlimit:10;stroke-dasharray:none;stroke-opacity:1"
         id="path19648" />
    </g>
    <g
       id="g19758"
       transform="matrix(0.50829277,0,0,0.50829277,-216.85803,-169.28182)"
       style="display:inline;stroke:#ffffff;stroke-opacity:1">
      <path
         d="m 456.64001,364.95999 c -0.16,0.16001 -0.32,0.32001 -0.48001,0.48001"
         style="fill:none;stroke:#ffffff;stroke-width:0.8;stroke-linecap:round;stroke-linejoin:round;stroke-miterlimit:10;stroke-dasharray:none;stroke-opacity:1"
         id="path19760" />
    </g>
    <g
       id="g19762"
       transform="matrix(0.50829277,0,0,0.50829277,-216.85803,-169.28182)"
       style="display:inline;stroke:#ffffff;stroke-opacity:1">
      <path
         d="m 454.07999,367.04001 c -0.31998,0 -0.47998,0.16 -0.79999,0.31998"
         style="fill:none;stroke:#ffffff;stroke-width:0.8;stroke-linecap:round;stroke-linejoin:round;stroke-miterlimit:10;stroke-dasharray:none;stroke-opacity:1"
         id="path19764" />
    </g>
    <g
       id="g19766"
       transform="matrix(0.50829277,0,0,0.50829277,-216.85803,-169.28182)"
       style="display:inline;stroke:#ffffff;stroke-opacity:1">
      <path
         d="m 448.32001,356.48001 c -0.32001,0.16 -0.48001,0.16 -0.80002,0.31998"
         style="fill:none;stroke:#ffffff;stroke-width:0.8;stroke-linecap:round;stroke-linejoin:round;stroke-miterlimit:10;stroke-dasharray:none;stroke-opacity:1"
         id="path19768" />
    </g>
    <g
       id="g19794"
       transform="matrix(0.50829277,0,0,0.50829277,-216.85803,-169.28182)"
       style="display:inline;stroke:#ffffff;stroke-opacity:1">
      <path
         d="m 439.84,368 c -0.48001,-0.16 -0.96,-0.48001 -1.44001,-0.64001"
         style="fill:none;stroke:#ffffff;stroke-width:0.8;stroke-linecap:round;stroke-linejoin:round;stroke-miterlimit:10;stroke-dasharray:none;stroke-opacity:1"
         id="path19796" />
    </g>
    <g
       id="g19798"
       transform="matrix(0.50829277,0,0,0.50829277,-216.85803,-169.28182)"
       style="display:inline;stroke:#ffffff;stroke-opacity:1">
      <path
         d="m 446.07999,363.67999 c -2.07999,0 -4,-0.47998 -5.75998,-1.6"
         style="fill:none;stroke:#ffffff;stroke-width:0.8;stroke-linecap:round;stroke-linejoin:round;stroke-miterlimit:10;stroke-dasharray:none;stroke-opacity:1"
         id="path19800" />
    </g>
    <g
       id="g19802"
       transform="matrix(0.50829277,0,0,0.50829277,-216.85803,-169.28182)"
       style="display:inline;stroke:#ffffff;stroke-opacity:1">
      <path
         d="m 442.72,358.72 c -0.48001,-0.16 -0.95999,-0.64001 -1.44,-0.95999"
         style="fill:none;stroke:#ffffff;stroke-width:0.8;stroke-linecap:round;stroke-linejoin:round;stroke-miterlimit:10;stroke-dasharray:none;stroke-opacity:1"
         id="path19804" />
    </g>
    <g
       id="g19806"
       transform="matrix(0.50829277,0,0,0.50829277,-216.85803,-169.28182)"
       style="display:inline;stroke:#ffffff;stroke-opacity:1">
      <path
         d="m 445.60001,356.79999 c -1.44001,-0.15998 -2.72001,-1.12 -3.36002,-2.4"
         style="fill:none;stroke:#ffffff;stroke-width:0.8;stroke-linecap:round;stroke-linejoin:round;stroke-miterlimit:10;stroke-dasharray:none;stroke-opacity:1"
         id="path19808" />
    </g>
    <g
       id="g19810"
       transform="matrix(0.50829277,0,0,0.50829277,-216.85803,-169.28182)"
       style="display:inline;stroke:#ffffff;stroke-opacity:1">
      <path
         d="M 439.84,356.79999 C 439.67999,356.48001 439.51999,356.16 439.35999,355.84"
         style="fill:none;stroke:#ffffff;stroke-width:0.8;stroke-linecap:round;stroke-linejoin:round;stroke-miterlimit:10;stroke-dasharray:none;stroke-opacity:1"
         id="path19812" />
    </g>
    <g
       id="g19814"
       transform="matrix(0.50829277,0,0,0.50829277,-216.85803,-169.28182)"
       style="display:inline;stroke:#ffffff;stroke-opacity:1">
      <path
         d="m 437.44,359.67999 c -0.16,-0.16 -0.32,-0.32 -0.48001,-0.47998"
         style="fill:none;stroke:#ffffff;stroke-width:0.8;stroke-linecap:round;stroke-linejoin:round;stroke-miterlimit:10;stroke-dasharray:none;stroke-opacity:1"
         id="path19816" />
    </g>
    <g
       id="g19818"
       transform="matrix(0.50829277,0,0,0.50829277,-216.85803,-169.28182)"
       style="display:inline;stroke:#ffffff;stroke-opacity:1">
      <path
         d="M 431.04001,359.51999 C 430.72,358.72 430.39999,358.07999 430.23999,357.28"
         style="fill:none;stroke:#ffffff;stroke-width:0.8;stroke-linecap:round;stroke-linejoin:round;stroke-miterlimit:10;stroke-dasharray:none;stroke-opacity:1"
         id="path19820" />
    </g>
    <g
       id="g19822"
       transform="matrix(0.50829277,0,0,0.50829277,-216.85803,-169.28182)"
       style="display:inline;stroke:#ffffff;stroke-opacity:1">
      <path
         d="m 435.20001,356.32001 c -0.48001,-1.28 -0.64001,-2.56 -0.64001,-3.84"
         style="fill:none;stroke:#ffffff;stroke-width:0.8;stroke-linecap:round;stroke-linejoin:round;stroke-miterlimit:10;stroke-dasharray:none;stroke-opacity:1"
         id="path19824" />
    </g>
    <g
       id="g19826"
       transform="matrix(0.50829277,0,0,0.50829277,-216.85803,-169.28182)"
       style="display:inline;stroke:#ffffff;stroke-opacity:1">
      <path
         d="m 439.04001,353.92001 c -0.16001,-1.28 -0.16001,-2.56002 0.31998,-3.84002"
         style="fill:none;stroke:#ffffff;stroke-width:0.8;stroke-linecap:round;stroke-linejoin:round;stroke-miterlimit:10;stroke-dasharray:none;stroke-opacity:1"
         id="path19828" />
    </g>
    <g
       id="g19830"
       transform="matrix(0.50829277,0,0,0.50829277,-216.85803,-169.28182)"
       style="display:inline;stroke:#ffffff;stroke-opacity:1">
      <path
         d="m 441.60001,352.48001 c 0,-0.80002 0.16,-1.60001 0.63998,-2.40002"
         style="fill:none;stroke:#ffffff;stroke-width:0.8;stroke-linecap:round;stroke-linejoin:round;stroke-miterlimit:10;stroke-dasharray:none;stroke-opacity:1"
         id="path19832" />
    </g>
    <g
       id="g19834"
       transform="matrix(0.50829277,0,0,0.50829277,-216.85803,-169.28182)"
       style="display:inline;stroke:#ffffff;stroke-opacity:1">
      <path
         d="m 443.67999,353.44 c -0.32,-0.64001 -0.32,-1.28 0,-1.92001"
         style="fill:none;stroke:#ffffff;stroke-width:0.8;stroke-linecap:round;stroke-linejoin:round;stroke-miterlimit:10;stroke-dasharray:none;stroke-opacity:1"
         id="path19836" />
    </g>
    <g
       id="g19842"
       transform="matrix(0.50829277,0,0,0.50829277,-216.85803,-169.28182)"
       style="display:inline;stroke:#ffffff;stroke-opacity:1">
      <path
         d="M 449.76001,368.95999 C 448.16,369.28 446.39999,369.44 444.64001,369.28"
         style="fill:none;stroke:#ffffff;stroke-width:0.8;stroke-linecap:round;stroke-linejoin:round;stroke-miterlimit:10;stroke-dasharray:none;stroke-opacity:1"
         id="path19844" />
    </g>
    <g
       id="g19846"
       transform="matrix(0.50829277,0,0,0.50829277,-216.85803,-169.28182)"
       style="display:inline;stroke:#ffffff;stroke-opacity:1">
      <path
         d="m 451.35999,362.72 c -0.63999,0.32001 -1.28,0.63999 -1.91999,0.79999"
         style="fill:none;stroke:#ffffff;stroke-width:0.8;stroke-linecap:round;stroke-linejoin:round;stroke-miterlimit:10;stroke-dasharray:none;stroke-opacity:1"
         id="path19848" />
    </g>
    <g
       id="g19850"
       transform="matrix(0.50829277,0,0,0.50829277,-216.85803,-169.28182)"
       style="display:inline;stroke:#ffffff;stroke-opacity:1">
      <path
         d="m 448.79999,359.20001 c -0.95999,0.31998 -1.75998,0.47998 -2.72,0.47998"
         style="fill:none;stroke:#ffffff;stroke-width:0.8;stroke-linecap:round;stroke-linejoin:round;stroke-miterlimit:10;stroke-dasharray:none;stroke-opacity:1"
         id="path19852" />
    </g>
    <g
       id="g19854"
       transform="matrix(0.50829277,0,0,0.50829277,-216.85803,-169.28182)"
       style="display:inline;stroke:#ffffff;stroke-opacity:1">
      <path
         d="m 447.04001,354.72 c -0.48001,0.16 -0.96002,0.32001 -1.44,0.16"
         style="fill:none;stroke:#ffffff;stroke-width:0.8;stroke-linecap:round;stroke-linejoin:round;stroke-miterlimit:10;stroke-dasharray:none;stroke-opacity:1"
         id="path19856" />
    </g>
    <g
       id="g19858"
       transform="matrix(0.50829277,0,0,0.50829277,10.531821,9.8812115)"
       style="display:inline;stroke:#ffffff;stroke-opacity:1">
      <path
         d="M 0,0 C 0,0.64 -0.64,1.28 -1.28,1.28 -1.92,1.28 -2.4,0.64 -2.4,0 c 0,-0.64 0.48,-1.12 1.12,-1.12 C -0.64,-1.12 0,-0.64 0,0 Z"
         style="fill:none;stroke:#ffffff;stroke-width:0.8;stroke-linecap:round;stroke-linejoin:round;stroke-miterlimit:10;stroke-dasharray:none;stroke-opacity:1"
         id="path19860" />
    </g>
    <g
       id="g19862"
       transform="matrix(0.50829277,0,0,0.50829277,-216.85803,-169.28182)"
       style="display:inline;stroke:#ffffff;stroke-opacity:1">
      <path
         d="m 444.48001,350.56 c 0.95999,-0.63999 2.39999,-0.63999 3.19998,0.16 0.96002,0.79999 1.12,2.23999 0.32001,3.20001"
         style="fill:none;stroke:#ffffff;stroke-width:0.8;stroke-linecap:round;stroke-linejoin:round;stroke-miterlimit:10;stroke-dasharray:none;stroke-opacity:1"
         id="path19864" />
    </g>
    <g
       id="g19870"
       transform="matrix(0.50829277,0,0,0.50829277,-216.85803,-169.28182)"
       style="display:inline;stroke:#ffffff;stroke-opacity:1">
      <path
         d="m 436.95999,366.56 c -1.6,-0.95999 -3.19998,-2.4 -4.31998,-4"
         style="fill:none;stroke:#ffffff;stroke-width:0.8;stroke-linecap:round;stroke-linejoin:round;stroke-miterlimit:10;stroke-dasharray:none;stroke-opacity:1"
         id="path19872" />
    </g>
  </g>
  <g
     inkscape:groupmode="layer"
     id="layer13"
     inkscape:label="upper"
     style="display:inline;opacity:0.1" />
</svg>
