<?xml version="1.0" encoding="UTF-8" standalone="no"?>
<svg
   xmlns:dc="http://purl.org/dc/elements/1.1/"
   xmlns:cc="http://creativecommons.org/ns#"
   xmlns:rdf="http://www.w3.org/1999/02/22-rdf-syntax-ns#"
   xmlns:svg="http://www.w3.org/2000/svg"
   xmlns="http://www.w3.org/2000/svg"
   xmlns:sodipodi="http://sodipodi.sourceforge.net/DTD/sodipodi-0.dtd"
   xmlns:inkscape="http://www.inkscape.org/namespaces/inkscape"
   width="75"
   height="75"
   viewBox="0 0 19.84375 19.843751"
   version="1.1"
   id="svg1984"
   inkscape:version="1.0.2 (394de47547, 2021-03-26)"
   sodipodi:docname="play-speed--jitter.svg">
  <defs
     id="defs1978" />
  <sodipodi:namedview
     id="base"
     pagecolor="#1a1a1a"
     bordercolor="#666666"
     borderopacity="1.0"
     inkscape:pageopacity="0"
     inkscape:pageshadow="2"
     inkscape:zoom="5.4571429"
     inkscape:cx="40.368366"
     inkscape:cy="30.486881"
     inkscape:document-units="px"
     inkscape:current-layer="layer11"
     inkscape:document-rotation="0"
     showgrid="false"
     units="px"
     inkscape:window-width="1151"
     inkscape:window-height="1038"
     inkscape:window-x="0"
     inkscape:window-y="64"
     inkscape:window-maximized="0"
     showguides="false">
    <inkscape:grid
       type="xygrid"
       id="grid3056" />
  </sodipodi:namedview>
  <metadata
     id="metadata1981">
    <rdf:RDF>
      <cc:Work
         rdf:about="">
        <dc:format>image/svg+xml</dc:format>
        <dc:type
           rdf:resource="http://purl.org/dc/dcmitype/StillImage" />
        <dc:title></dc:title>
      </cc:Work>
    </rdf:RDF>
  </metadata>
  <g
     inkscape:label="Pads"
     inkscape:groupmode="layer"
     id="layer1"
     style="display:inline"
     sodipodi:insensitive="true">
    <path
       d="m 19.721759,9.8812115 c 0,5.4488985 -4.391649,9.8405485 -9.8405483,9.8405485 -5.4488979,0 -9.75922103,-4.39165 -9.75922103,-9.8405485 0,-5.4488984 4.31032313,-9.7592215 9.75922103,-9.7592215 5.4488993,0 9.8405483,4.3103231 9.8405483,9.7592215 z"
       style="fill:#000000;stroke:#ffffff;stroke-width:0.244;stroke-linecap:round;stroke-linejoin:round;stroke-miterlimit:10;stroke-dasharray:none;stroke-opacity:1"
       id="path27212" />
  </g>
  <g
     inkscape:groupmode="layer"
     id="layer11"
     inkscape:label="lower"
     style="display:inline;opacity:1">
    <g
       id="g19438"
       transform="matrix(0.50829277,0,0,0.50829277,-263.70228,-213.19831)"
       style="display:inline;stroke:#ffffff;stroke-opacity:1">
      <path
         d="M 529.91998,432.79999 C 530.56,432 531.20001,431.35999 532,430.72"
         style="fill:none;stroke:#ffffff;stroke-width:0.8;stroke-linecap:round;stroke-linejoin:round;stroke-miterlimit:10;stroke-dasharray:none;stroke-opacity:1"
         id="path19440" />
    </g>
    <g
       id="g19442"
       transform="matrix(0.50829277,0,0,0.50829277,-263.70228,-213.19831)"
       style="display:inline;stroke:#ffffff;stroke-opacity:1">
      <path
         d="m 529.28003,431.04001 c 0.31995,-0.32001 0.47998,-0.64002 0.79999,-0.80002"
         style="fill:none;stroke:#ffffff;stroke-width:0.8;stroke-linecap:round;stroke-linejoin:round;stroke-miterlimit:10;stroke-dasharray:none;stroke-opacity:1"
         id="path19444" />
    </g>
    <g
       id="g19446"
       transform="matrix(0.50829277,0,0,0.50829277,-263.70228,-213.19831)"
       style="display:inline;stroke:#ffffff;stroke-opacity:1">
      <path
         d="m 526.56,432.48001 c 1.11999,-2.08002 2.88,-3.84 4.96002,-5.12002"
         style="fill:none;stroke:#ffffff;stroke-width:0.8;stroke-linecap:round;stroke-linejoin:round;stroke-miterlimit:10;stroke-dasharray:none;stroke-opacity:1"
         id="path19448" />
    </g>
    <g
       id="g19578"
       transform="matrix(0.50829277,0,0,0.50829277,-263.70228,-213.19831)"
       style="display:inline;stroke:#ffffff;stroke-opacity:1">
      <path
         d="m 530.71997,434.23999 c 0.32001,-0.47998 0.48004,-0.79999 0.80005,-1.11999"
         style="fill:none;stroke:#ffffff;stroke-width:0.8;stroke-linecap:round;stroke-linejoin:round;stroke-miterlimit:10;stroke-dasharray:none;stroke-opacity:1"
         id="path19580" />
    </g>
    <g
       id="g22534"
       transform="matrix(0.50829277,0,0,0.50829277,-263.70228,-213.19831)"
       style="display:inline;stroke:#ffffff;stroke-opacity:1">
      <path
         d="m 549.28003,437.44 -9.60004,9.12"
         style="fill:none;stroke:#ffffff;stroke-width:0.8;stroke-linecap:round;stroke-linejoin:round;stroke-miterlimit:10;stroke-dasharray:none;stroke-opacity:1"
         id="path22536" />
    </g>
    <g
       id="g22538"
       transform="matrix(0.50829277,0,0,0.50829277,-263.70228,-213.19831)"
       style="display:inline;stroke:#ffffff;stroke-opacity:1">
      <path
         d="M 552.15997,440.79999 542.56,449.92001"
         style="fill:none;stroke:#ffffff;stroke-width:0.8;stroke-linecap:round;stroke-linejoin:round;stroke-miterlimit:10;stroke-dasharray:none;stroke-opacity:1"
         id="path22540" />
    </g>
    <g
       id="g22542"
       transform="matrix(0.50829277,0,0,0.50829277,11.914389,9.8812119)"
       style="display:inline;stroke:#ffffff;stroke-opacity:1">
      <path
         d="m 0,0 c 0,2.24 -1.76,4 -4,4 -2.24,0 -3.84,-1.76 -3.84,-4 0,-2.24 1.6,-3.84 3.84,-3.84 2.24,0 4,1.6 4,3.84 z"
         style="fill:none;stroke:#ffffff;stroke-width:0.8;stroke-linecap:round;stroke-linejoin:round;stroke-miterlimit:10;stroke-dasharray:none;stroke-opacity:1"
         id="path22544" />
    </g>
    <g
       id="g22546"
       transform="matrix(0.50829277,0,0,0.50829277,12.402359,9.8812119)"
       style="display:inline;stroke:#ffffff;stroke-opacity:1">
      <path
         d="m 0,0 c 0,2.72 -2.24,4.96 -4.96,4.96 -2.72,0 -4.8,-2.24 -4.8,-4.96 0,-2.72 2.08,-4.8 4.8,-4.8 C -2.24,-4.8 0,-2.72 0,0 Z"
         style="fill:none;stroke:#ffffff;stroke-width:0.8;stroke-linecap:round;stroke-linejoin:round;stroke-miterlimit:10;stroke-dasharray:none;stroke-opacity:1"
         id="path22548" />
    </g>
    <g
       id="g22554"
       transform="matrix(0.50829277,0,0,0.50829277,10.4505,9.8812119)"
       style="display:inline;stroke:#ffffff;stroke-opacity:1">
      <path
         d="m 0,0 c 0,0.64 -0.48,1.12 -1.12,1.12 -0.64,0 -0.96,-0.48 -0.96,-1.12 0,-0.64 0.32,-0.96 0.96,-0.96 C -0.48,-0.96 0,-0.64 0,0 Z"
         style="fill:none;stroke:#ffffff;stroke-width:0.8;stroke-linecap:round;stroke-linejoin:round;stroke-miterlimit:10;stroke-dasharray:none;stroke-opacity:1"
         id="path22556" />
    </g>
    <g
       id="g22558"
       transform="matrix(0.50829277,0,0,0.50829277,10.938476,9.8812119)"
       style="display:inline;stroke:#ffffff;stroke-opacity:1">
      <path
         d="M 0,0 C 0,1.12 -0.96,2.08 -2.08,2.08 -3.2,2.08 -4,1.12 -4,0 -4,-1.12 -3.2,-1.92 -2.08,-1.92 -0.96,-1.92 0,-1.12 0,0 Z"
         style="fill:none;stroke:#ffffff;stroke-width:0.8;stroke-linecap:round;stroke-linejoin:round;stroke-miterlimit:10;stroke-dasharray:none;stroke-opacity:1"
         id="path22560" />
    </g>
    <g
       id="g22562"
       transform="matrix(0.50829277,0,0,0.50829277,11.426447,9.8812119)"
       style="display:inline;stroke:#ffffff;stroke-opacity:1">
      <path
         d="m 0,0 c 0,1.6 -1.44,3.04 -3.04,3.04 -1.6,0 -2.88,-1.44 -2.88,-3.04 0,-1.6 1.28,-2.88 2.88,-2.88 C -1.44,-2.88 0,-1.6 0,0 Z"
         style="fill:none;stroke:#ffffff;stroke-width:0.8;stroke-linecap:round;stroke-linejoin:round;stroke-miterlimit:10;stroke-dasharray:none;stroke-opacity:1"
         id="path22564" />
    </g>
    <g
       id="g22662"
       transform="matrix(0.50829277,0,0,0.50829277,9.7999055,16.712672)"
       style="display:inline;stroke:#ffffff;stroke-opacity:1">
      <path
         d="M 0,0 C 0,0.64 -0.64,1.28 -1.28,1.28 -1.92,1.28 -2.4,0.64 -2.4,0 c 0,-0.64 0.48,-1.12 1.12,-1.12 C -0.64,-1.12 0,-0.64 0,0 Z"
         style="fill:none;stroke:#ffffff;stroke-width:0.8;stroke-linecap:round;stroke-linejoin:round;stroke-miterlimit:10;stroke-dasharray:none;stroke-opacity:1"
         id="path22664" />
    </g>
    <g
       id="g22666"
       transform="matrix(0.50829277,0,0,0.50829277,-263.70228,-213.19831)"
       style="display:inline;stroke:#ffffff;stroke-opacity:1">
      <path
         d="m 539.67999,449.44 -1.91998,1.91999"
         style="fill:none;stroke:#ffffff;stroke-width:0.8;stroke-linecap:round;stroke-linejoin:round;stroke-miterlimit:10;stroke-dasharray:none;stroke-opacity:1"
         id="path22668" />
    </g>
    <g
       id="g22670"
       transform="matrix(0.50829277,0,0,0.50829277,-263.70228,-213.19831)"
       style="display:inline;stroke:#ffffff;stroke-opacity:1">
      <path
         d="m 539.67999,446.56 v 2.88"
         style="fill:none;stroke:#ffffff;stroke-width:0.8;stroke-linecap:round;stroke-linejoin:round;stroke-miterlimit:10;stroke-dasharray:none;stroke-opacity:1"
         id="path22672" />
    </g>
    <g
       id="g22674"
       transform="matrix(0.50829277,0,0,0.50829277,-263.70228,-213.19831)"
       style="display:inline;stroke:#ffffff;stroke-opacity:1">
      <path
         d="m 539.67999,449.44 2.88001,0.48001"
         style="fill:none;stroke:#ffffff;stroke-width:0.8;stroke-linecap:round;stroke-linejoin:round;stroke-miterlimit:10;stroke-dasharray:none;stroke-opacity:1"
         id="path22676" />
    </g>
    <g
       id="g22550"
       transform="matrix(0.50829277,0,0,0.50829277,18.013902,9.8812119)"
       style="display:inline;stroke:#ffffff;stroke-opacity:1">
      <path
         d="m 0,0 c 0,8.8 -7.2,16 -16,16 -8.799999,0 -15.84,-7.2 -15.84,-16 0,-8.8 7.040001,-15.84 15.84,-15.84 8.8,0 16,7.04 16,15.84 z"
         style="fill:none;stroke:#ffffff;stroke-width:0.8;stroke-linecap:round;stroke-linejoin:round;stroke-miterlimit:10;stroke-dasharray:none;stroke-opacity:1"
         id="path22552" />
    </g>
  </g>
  <g
     inkscape:groupmode="layer"
     id="layer13"
     inkscape:label="upper"
     style="display:inline;opacity:0.1" />
</svg>
