<?xml version="1.0" encoding="UTF-8" standalone="no"?>
<svg
   xmlns:dc="http://purl.org/dc/elements/1.1/"
   xmlns:cc="http://creativecommons.org/ns#"
   xmlns:rdf="http://www.w3.org/1999/02/22-rdf-syntax-ns#"
   xmlns:svg="http://www.w3.org/2000/svg"
   xmlns="http://www.w3.org/2000/svg"
   xmlns:sodipodi="http://sodipodi.sourceforge.net/DTD/sodipodi-0.dtd"
   xmlns:inkscape="http://www.inkscape.org/namespaces/inkscape"
   width="75"
   height="75"
   viewBox="0 0 19.84375 19.843751"
   version="1.1"
   id="svg1984"
   inkscape:version="1.0.2 (394de47547, 2021-03-26)"
   sodipodi:docname="pitch.svg">
  <defs
     id="defs1978" />
  <sodipodi:namedview
     id="base"
     pagecolor="#1a1a1a"
     bordercolor="#666666"
     borderopacity="1.0"
     inkscape:pageopacity="0"
     inkscape:pageshadow="2"
     inkscape:zoom="2.7285714"
     inkscape:cx="36.996189"
     inkscape:cy="44.259179"
     inkscape:document-units="px"
     inkscape:current-layer="layer11"
     inkscape:document-rotation="0"
     showgrid="false"
     units="px"
     inkscape:window-width="1151"
     inkscape:window-height="1038"
     inkscape:window-x="0"
     inkscape:window-y="64"
     inkscape:window-maximized="0">
    <inkscape:grid
       type="xygrid"
       id="grid3056" />
  </sodipodi:namedview>
  <metadata
     id="metadata1981">
    <rdf:RDF>
      <cc:Work
         rdf:about="">
        <dc:format>image/svg+xml</dc:format>
        <dc:type
           rdf:resource="http://purl.org/dc/dcmitype/StillImage" />
        <dc:title></dc:title>
      </cc:Work>
    </rdf:RDF>
  </metadata>
  <g
     inkscape:label="Pads"
     inkscape:groupmode="layer"
     id="layer1"
     style="display:inline"
     sodipodi:insensitive="true">
    <path
       d="m 19.721759,9.8812115 c 0,5.4488985 -4.391649,9.8405485 -9.8405483,9.8405485 -5.4488979,0 -9.75922103,-4.39165 -9.75922103,-9.8405485 0,-5.4488984 4.31032313,-9.7592215 9.75922103,-9.7592215 5.4488993,0 9.8405483,4.3103231 9.8405483,9.7592215 z"
       style="fill:#000000;stroke:#ffffff;stroke-width:0.244;stroke-linecap:round;stroke-linejoin:round;stroke-miterlimit:10;stroke-dasharray:none;stroke-opacity:1"
       id="path27212" />
  </g>
  <g
     inkscape:groupmode="layer"
     id="layer11"
     inkscape:label="lower"
     style="display:inline;opacity:0.1">
    <g
       id="g21418"
       transform="matrix(0.50829278,0,0,0.50829278,-263.70228,-125.36532)"
       style="display:inline;fill:#ffffff;fill-opacity:1;stroke:#ffffff;stroke-opacity:1">
      <path
         d="M 533.59998,276.16 V 263.04001"
         style="fill:#ffffff;fill-opacity:1;stroke:#ffffff;stroke-width:0.8;stroke-linecap:round;stroke-linejoin:round;stroke-miterlimit:10;stroke-dasharray:none;stroke-opacity:1"
         id="path21420" />
    </g>
    <g
       id="g22034"
       transform="matrix(0.50829278,0,0,0.50829278,6.953447,14.842154)"
       style="display:inline">
      <path
         d="M 0,0 C 0,0.48 -0.48,0.96 -0.96,0.96 -1.6,0.96 -2.08,0.48 -2.08,0 c 0,-0.64 0.48,-1.12 1.12,-1.12 C -0.48,-1.12 0,-0.64 0,0 Z"
         style="fill:none;stroke:#000000;stroke-width:1.92;stroke-linecap:round;stroke-linejoin:round;stroke-miterlimit:10;stroke-dasharray:none;stroke-opacity:1"
         id="path22036" />
    </g>
    <g
       id="g22038"
       transform="matrix(0.50829278,0,0,0.50829278,7.604076,14.842154)"
       style="display:inline;fill:#ffffff;fill-opacity:1;stroke:#ffffff;stroke-opacity:1">
      <path
         d="M 0,0 C 0,1.12 -0.96,2.08 -2.08,2.08 -3.2,2.08 -4,1.12 -4,0 -4,-1.12 -3.2,-1.92 -2.08,-1.92 -0.96,-1.92 0,-1.12 0,0 Z"
         style="fill:#ffffff;fill-opacity:1;stroke:#ffffff;stroke-width:0.8;stroke-linecap:round;stroke-linejoin:round;stroke-miterlimit:10;stroke-dasharray:none;stroke-opacity:1"
         id="path22040" />
    </g>
  </g>
  <g
     inkscape:groupmode="layer"
     id="layer13"
     inkscape:label="upper">
    <g
       id="g21422"
       transform="matrix(0.50829277,0,0,0.50829277,-263.70228,-125.36532)"
       style="display:inline;opacity:1;stroke:#ffffff;stroke-opacity:1">
      <path
         d="m 538.71997,253.60001 9.12006,9.6"
         style="fill:none;stroke:#ffffff;stroke-width:0.8;stroke-linecap:round;stroke-linejoin:round;stroke-miterlimit:10;stroke-dasharray:none;stroke-opacity:1"
         id="path21424" />
    </g>
    <g
       id="g21426"
       transform="matrix(0.50829277,0,0,0.50829277,-263.70228,-125.36532)"
       style="display:inline;opacity:1;stroke:#ffffff;stroke-opacity:1">
      <path
         d="m 535.35998,256.48001 9.12,9.59998"
         style="fill:none;stroke:#ffffff;stroke-width:0.8;stroke-linecap:round;stroke-linejoin:round;stroke-miterlimit:10;stroke-dasharray:none;stroke-opacity:1"
         id="path21428" />
    </g>
    <g
       id="g22234"
       transform="matrix(0.50829277,0,0,0.50829277,16.631361,11.345095)"
       style="display:inline;opacity:1;stroke:#ffffff;stroke-opacity:1">
      <path
         d="M 0,0 C 0,0.64 -0.64,1.28 -1.28,1.28 -1.92,1.28 -2.4,0.64 -2.4,0 c 0,-0.64 0.48,-1.12 1.12,-1.12 C -0.64,-1.12 0,-0.64 0,0 Z"
         style="fill:none;stroke:#ffffff;stroke-width:0.8;stroke-linecap:round;stroke-linejoin:round;stroke-miterlimit:10;stroke-dasharray:none;stroke-opacity:1"
         id="path22236" />
    </g>
    <g
       id="g22238"
       transform="matrix(0.50829277,0,0,0.50829277,-263.70228,-125.36532)"
       style="display:inline;opacity:1;stroke:#ffffff;stroke-opacity:1">
      <path
         d="m 547.35998,266.07999 0.48005,-2.87998"
         style="fill:none;stroke:#ffffff;stroke-width:0.8;stroke-linecap:round;stroke-linejoin:round;stroke-miterlimit:10;stroke-dasharray:none;stroke-opacity:1"
         id="path22240" />
    </g>
    <g
       id="g22242"
       transform="matrix(0.50829277,0,0,0.50829277,-263.70228,-125.36532)"
       style="display:inline;opacity:1;stroke:#ffffff;stroke-opacity:1">
      <path
         d="M 547.35998,266.07999 549.28003,268"
         style="fill:none;stroke:#ffffff;stroke-width:0.8;stroke-linecap:round;stroke-linejoin:round;stroke-miterlimit:10;stroke-dasharray:none;stroke-opacity:1"
         id="path22244" />
    </g>
    <g
       id="g22246"
       transform="matrix(0.50829277,0,0,0.50829277,-263.70228,-125.36532)"
       style="display:inline;opacity:1;stroke:#ffffff;stroke-opacity:1">
      <path
         d="m 544.47998,266.07999 h 2.88"
         style="fill:none;stroke:#ffffff;stroke-width:0.8;stroke-linecap:round;stroke-linejoin:round;stroke-miterlimit:10;stroke-dasharray:none;stroke-opacity:1"
         id="path22248" />
    </g>
  </g>
</svg>
