<?xml version="1.0" encoding="UTF-8" standalone="no"?>
<svg
   xmlns:dc="http://purl.org/dc/elements/1.1/"
   xmlns:cc="http://creativecommons.org/ns#"
   xmlns:rdf="http://www.w3.org/1999/02/22-rdf-syntax-ns#"
   xmlns:svg="http://www.w3.org/2000/svg"
   xmlns="http://www.w3.org/2000/svg"
   xmlns:sodipodi="http://sodipodi.sourceforge.net/DTD/sodipodi-0.dtd"
   xmlns:inkscape="http://www.inkscape.org/namespaces/inkscape"
   width="75"
   height="75"
   viewBox="0 0 19.84375 19.843751"
   version="1.1"
   id="svg1984"
   inkscape:version="1.0.2 (394de47547, 2021-03-26)"
   sodipodi:docname="sample.svg">
  <defs
     id="defs1978" />
  <sodipodi:namedview
     id="base"
     pagecolor="#1a1a1a"
     bordercolor="#666666"
     borderopacity="1.0"
     inkscape:pageopacity="0"
     inkscape:pageshadow="2"
     inkscape:zoom="5.4571429"
     inkscape:cx="39.405086"
     inkscape:cy="28.973862"
     inkscape:document-units="px"
     inkscape:current-layer="layer11"
     inkscape:document-rotation="0"
     showgrid="false"
     units="px"
     inkscape:window-width="1151"
     inkscape:window-height="1038"
     inkscape:window-x="0"
     inkscape:window-y="64"
     inkscape:window-maximized="0"
     showguides="false">
    <inkscape:grid
       type="xygrid"
       id="grid3056" />
  </sodipodi:namedview>
  <metadata
     id="metadata1981">
    <rdf:RDF>
      <cc:Work
         rdf:about="">
        <dc:format>image/svg+xml</dc:format>
        <dc:type
           rdf:resource="http://purl.org/dc/dcmitype/StillImage" />
        <dc:title></dc:title>
      </cc:Work>
    </rdf:RDF>
  </metadata>
  <g
     inkscape:label="Pads"
     inkscape:groupmode="layer"
     id="layer1"
     style="display:inline"
     sodipodi:insensitive="true">
    <path
       d="m 19.721759,9.8812115 c 0,5.4488985 -4.391649,9.8405485 -9.8405483,9.8405485 -5.4488979,0 -9.75922103,-4.39165 -9.75922103,-9.8405485 0,-5.4488984 4.31032313,-9.7592215 9.75922103,-9.7592215 5.4488993,0 9.8405483,4.3103231 9.8405483,9.7592215 z"
       style="fill:#000000;stroke:#ffffff;stroke-width:0.244;stroke-linecap:round;stroke-linejoin:round;stroke-miterlimit:10;stroke-dasharray:none;stroke-opacity:1"
       id="path27212" />
  </g>
  <g
     inkscape:groupmode="layer"
     id="layer11"
     inkscape:label="lower"
     style="display:inline;opacity:1">
    <g
       id="g23210"
       transform="matrix(0.50829277,0,0,0.50829277,-310.54656,-213.19831)"
       style="display:inline;stroke:#ffffff;stroke-opacity:1">
      <path
         d="M 636.15997,436.95999 V 441.28"
         style="fill:none;stroke:#ffffff;stroke-width:0.8;stroke-linecap:round;stroke-linejoin:round;stroke-miterlimit:10;stroke-dasharray:none;stroke-opacity:1"
         id="path23212" />
    </g>
    <g
       id="g23214"
       transform="matrix(0.50829277,0,0,0.50829277,-310.54656,-213.19831)"
       style="display:inline;stroke:#ffffff;stroke-opacity:1">
      <path
         d="M 637.59998,438.39999 V 439.84"
         style="fill:none;stroke:#ffffff;stroke-width:0.8;stroke-linecap:round;stroke-linejoin:round;stroke-miterlimit:10;stroke-dasharray:none;stroke-opacity:1"
         id="path23216" />
    </g>
    <g
       id="g23218"
       transform="matrix(0.50829277,0,0,0.50829277,16.550017,8.4173285)"
       style="display:inline;stroke:#ffffff;stroke-opacity:1">
      <path
         d="M 0,0 C 0,1.12 -0.96,2.08 -2.08,2.08 -3.2,2.08 -4,1.12 -4,0 -4,-1.12 -3.2,-1.92 -2.08,-1.92 -0.96,-1.92 0,-1.12 0,0 Z"
         style="fill:none;stroke:#ffffff;stroke-width:0.8;stroke-linecap:round;stroke-linejoin:round;stroke-miterlimit:10;stroke-dasharray:none;stroke-opacity:1"
         id="path23220" />
    </g>
    <g
       id="g23222"
       transform="matrix(0.50829277,0,0,0.50829277,16.550017,5.0016011)"
       style="display:inline;stroke:#ffffff;stroke-opacity:1">
      <path
         d="M 0,0 C 0,1.12 -0.96,2.08 -2.08,2.08 -3.2,2.08 -4,1.12 -4,0 -4,-1.12 -3.2,-1.92 -2.08,-1.92 -0.96,-1.92 0,-1.12 0,0 Z"
         style="fill:none;stroke:#ffffff;stroke-width:0.8;stroke-linecap:round;stroke-linejoin:round;stroke-miterlimit:10;stroke-dasharray:none;stroke-opacity:1"
         id="path23224" />
    </g>
    <g
       id="g23226"
       transform="matrix(0.50829277,0,0,0.50829277,16.550017,11.833056)"
       style="display:inline;stroke:#ffffff;stroke-opacity:1">
      <path
         d="M 0,0 C 0,1.12 -0.96,2.08 -2.08,2.08 -3.2,2.08 -4,1.12 -4,0 -4,-1.12 -3.2,-1.92 -2.08,-1.92 -0.96,-1.92 0,-1.12 0,0 Z"
         style="fill:none;stroke:#ffffff;stroke-width:0.8;stroke-linecap:round;stroke-linejoin:round;stroke-miterlimit:10;stroke-dasharray:none;stroke-opacity:1"
         id="path23228" />
    </g>
    <g
       id="g23330"
       transform="matrix(0.50829277,0,0,0.50829277,16.550017,15.248783)"
       style="display:inline;stroke:#ffffff;stroke-opacity:1">
      <path
         d="M 0,0 C 0,1.12 -0.96,2.08 -2.08,2.08 -3.2,2.08 -4,1.12 -4,0 -4,-1.12 -3.2,-1.92 -2.08,-1.92 -0.96,-1.92 0,-1.12 0,0 Z"
         style="fill:none;stroke:#ffffff;stroke-width:0.8;stroke-linecap:round;stroke-linejoin:round;stroke-miterlimit:10;stroke-dasharray:none;stroke-opacity:1"
         id="path23332" />
    </g>
    <g
       id="g23422"
       transform="matrix(0.50829277,0,0,0.50829277,-310.54656,-213.19831)"
       style="display:inline;stroke:#ffffff;stroke-opacity:1">
      <path
         d="m 614.56,439.84 v -1.44001"
         style="fill:none;stroke:#ffffff;stroke-width:0.8;stroke-linecap:round;stroke-linejoin:round;stroke-miterlimit:10;stroke-dasharray:none;stroke-opacity:1"
         id="path23424" />
    </g>
    <g
       id="g23426"
       transform="matrix(0.50829277,0,0,0.50829277,-310.54656,-213.19831)"
       style="display:inline;stroke:#ffffff;stroke-opacity:1">
      <path
         d="m 616,441.28 v -4.32001"
         style="fill:none;stroke:#ffffff;stroke-width:0.8;stroke-linecap:round;stroke-linejoin:round;stroke-miterlimit:10;stroke-dasharray:none;stroke-opacity:1"
         id="path23428" />
    </g>
    <g
       id="g23430"
       transform="matrix(0.50829277,0,0,0.50829277,-310.54656,-213.19831)"
       style="display:inline;stroke:#ffffff;stroke-opacity:1">
      <path
         d="m 617.44,433.60001 v 10.07998"
         style="fill:none;stroke:#ffffff;stroke-width:0.8;stroke-linecap:round;stroke-linejoin:round;stroke-miterlimit:10;stroke-dasharray:none;stroke-opacity:1"
         id="path23432" />
    </g>
    <g
       id="g23434"
       transform="matrix(0.50829277,0,0,0.50829277,-310.54656,-213.19831)"
       style="display:inline;stroke:#ffffff;stroke-opacity:1">
      <path
         d="m 620.32001,435.51999 v 6.24002"
         style="fill:none;stroke:#ffffff;stroke-width:0.8;stroke-linecap:round;stroke-linejoin:round;stroke-miterlimit:10;stroke-dasharray:none;stroke-opacity:1"
         id="path23436" />
    </g>
    <g
       id="g23438"
       transform="matrix(0.50829277,0,0,0.50829277,-310.54656,-213.19831)"
       style="display:inline;stroke:#ffffff;stroke-opacity:1">
      <path
         d="m 618.88,437.92001 v 2.87998"
         style="fill:none;stroke:#ffffff;stroke-width:0.8;stroke-linecap:round;stroke-linejoin:round;stroke-miterlimit:10;stroke-dasharray:none;stroke-opacity:1"
         id="path23440" />
    </g>
    <g
       id="g23442"
       transform="matrix(0.50829277,0,0,0.50829277,-310.54656,-213.19831)"
       style="display:inline;stroke:#ffffff;stroke-opacity:1">
      <path
         d="m 621.76001,439.84 v -0.48001"
         style="fill:none;stroke:#ffffff;stroke-width:0.8;stroke-linecap:round;stroke-linejoin:round;stroke-miterlimit:10;stroke-dasharray:none;stroke-opacity:1"
         id="path23444" />
    </g>
    <g
       id="g23446"
       transform="matrix(0.50829277,0,0,0.50829277,-310.54656,-213.19831)"
       style="display:inline;stroke:#ffffff;stroke-opacity:1">
      <path
         d="m 623.20001,441.28 v -3.35999"
         style="fill:none;stroke:#ffffff;stroke-width:0.8;stroke-linecap:round;stroke-linejoin:round;stroke-miterlimit:10;stroke-dasharray:none;stroke-opacity:1"
         id="path23448" />
    </g>
    <g
       id="g23450"
       transform="matrix(0.50829277,0,0,0.50829277,-310.54656,-213.19831)"
       style="display:inline;stroke:#ffffff;stroke-opacity:1">
      <path
         d="m 624.64001,444.64001 v -12"
         style="fill:none;stroke:#ffffff;stroke-width:0.8;stroke-linecap:round;stroke-linejoin:round;stroke-miterlimit:10;stroke-dasharray:none;stroke-opacity:1"
         id="path23452" />
    </g>
    <g
       id="g23454"
       transform="matrix(0.50829277,0,0,0.50829277,-310.54656,-213.19831)"
       style="display:inline;stroke:#ffffff;stroke-opacity:1">
      <path
         d="M 626.08002,442.23999 V 436"
         style="fill:none;stroke:#ffffff;stroke-width:0.8;stroke-linecap:round;stroke-linejoin:round;stroke-miterlimit:10;stroke-dasharray:none;stroke-opacity:1"
         id="path23456" />
    </g>
    <g
       id="g23458"
       transform="matrix(0.50829277,0,0,0.50829277,-310.54656,-213.19831)"
       style="display:inline;stroke:#ffffff;stroke-opacity:1">
      <path
         d="m 627.52002,433.60001 v 12"
         style="fill:none;stroke:#ffffff;stroke-width:0.8;stroke-linecap:round;stroke-linejoin:round;stroke-miterlimit:10;stroke-dasharray:none;stroke-opacity:1"
         id="path23460" />
    </g>
    <g
       id="g23462"
       transform="matrix(0.50829277,0,0,0.50829277,-310.54656,-213.19831)"
       style="display:inline;stroke:#ffffff;stroke-opacity:1">
      <path
         d="m 626.08002,436 v 6.23999"
         style="fill:none;stroke:#ffffff;stroke-width:0.8;stroke-linecap:round;stroke-linejoin:round;stroke-miterlimit:10;stroke-dasharray:none;stroke-opacity:1"
         id="path23464" />
    </g>
    <g
       id="g23466"
       transform="matrix(0.50829277,0,0,0.50829277,-310.54656,-213.19831)"
       style="display:inline;stroke:#ffffff;stroke-opacity:1">
      <path
         d="m 628.96002,436.95999 v 3.36002"
         style="fill:none;stroke:#ffffff;stroke-width:0.8;stroke-linecap:round;stroke-linejoin:round;stroke-miterlimit:10;stroke-dasharray:none;stroke-opacity:1"
         id="path23468" />
    </g>
    <g
       id="g23470"
       transform="matrix(0.50829277,0,0,0.50829277,-310.54656,-213.19831)"
       style="display:inline;stroke:#ffffff;stroke-opacity:1">
      <path
         d="M 633.28003,440.32001 V 437.44"
         style="fill:none;stroke:#ffffff;stroke-width:0.8;stroke-linecap:round;stroke-linejoin:round;stroke-miterlimit:10;stroke-dasharray:none;stroke-opacity:1"
         id="path23472" />
    </g>
    <g
       id="g23474"
       transform="matrix(0.50829277,0,0,0.50829277,-310.54656,-213.19831)"
       style="display:inline;stroke:#ffffff;stroke-opacity:1">
      <path
         d="M 630.40002,438.39999 V 438.88"
         style="fill:none;stroke:#ffffff;stroke-width:0.8;stroke-linecap:round;stroke-linejoin:round;stroke-miterlimit:10;stroke-dasharray:none;stroke-opacity:1"
         id="path23476" />
    </g>
    <g
       id="g23478"
       transform="matrix(0.50829277,0,0,0.50829277,-310.54656,-213.19831)"
       style="display:inline;stroke:#ffffff;stroke-opacity:1">
      <path
         d="M 634.71997,444.64001 V 434.56"
         style="fill:none;stroke:#ffffff;stroke-width:0.8;stroke-linecap:round;stroke-linejoin:round;stroke-miterlimit:10;stroke-dasharray:none;stroke-opacity:1"
         id="path23480" />
    </g>
    <g
       id="g23482"
       transform="matrix(0.50829277,0,0,0.50829277,-310.54656,-213.19831)"
       style="display:inline;stroke:#ffffff;stroke-opacity:1">
      <path
         d="m 631.84003,442.72 v -6.23999"
         style="fill:none;stroke:#ffffff;stroke-width:0.8;stroke-linecap:round;stroke-linejoin:round;stroke-miterlimit:10;stroke-dasharray:none;stroke-opacity:1"
         id="path23484" />
    </g>
  </g>
  <g
     inkscape:groupmode="layer"
     id="layer13"
     inkscape:label="upper"
     style="display:inline;opacity:0.1" />
</svg>
